G04 #@! TF.GenerationSoftware,KiCad,Pcbnew,7.0.6*
G04 #@! TF.CreationDate,2023-08-25T15:25:40+01:00*
G04 #@! TF.ProjectId,gdp_flexible,6764705f-666c-4657-9869-626c652e6b69,1.0*
G04 #@! TF.SameCoordinates,Original*
G04 #@! TF.FileFunction,Paste,Bot*
G04 #@! TF.FilePolarity,Positive*
%FSLAX46Y46*%
G04 Gerber Fmt 4.6, Leading zero omitted, Abs format (unit mm)*
G04 Created by KiCad (PCBNEW 7.0.6) date 2023-08-25 15:25:40*
%MOMM*%
%LPD*%
G01*
G04 APERTURE LIST*
%ADD10C,2.100000*%
%ADD11C,0.150000*%
G04 APERTURE END LIST*
D10*
X169950000Y-182000000D02*
G75*
G03*
X169950000Y-182000000I-1050000J0D01*
G01*
X49084640Y-39970097D02*
G75*
G03*
X49084640Y-39970097I-1050000J0D01*
G01*
X156950000Y-170000000D02*
G75*
G03*
X156950000Y-170000000I-1050000J0D01*
G01*
D11*
X171000000Y-27900000D02*
X171000000Y-39900000D01*
X169000000Y-41900000D01*
X156000000Y-41900000D01*
X154000000Y-39900000D01*
X154000000Y-27900000D01*
X156000000Y-25900000D01*
X169000000Y-25900000D01*
X171000000Y-27900000D01*
G36*
X171000000Y-27900000D02*
G01*
X171000000Y-39900000D01*
X169000000Y-41900000D01*
X156000000Y-41900000D01*
X154000000Y-39900000D01*
X154000000Y-27900000D01*
X156000000Y-25900000D01*
X169000000Y-25900000D01*
X171000000Y-27900000D01*
G37*
D10*
X156999988Y-181972545D02*
G75*
G03*
X156999988Y-181972545I-1050000J0D01*
G01*
X49067320Y-28032570D02*
G75*
G03*
X49067320Y-28032570I-1050000J0D01*
G01*
X157107356Y-39880389D02*
G75*
G03*
X157107356Y-39880389I-1050000J0D01*
G01*
X62050000Y-40000000D02*
G75*
G03*
X62050000Y-40000000I-1050000J0D01*
G01*
X170053922Y-39887417D02*
G75*
G03*
X170053922Y-39887417I-1050000J0D01*
G01*
X62050000Y-28000000D02*
G75*
G03*
X62050000Y-28000000I-1050000J0D01*
G01*
X169950000Y-170000000D02*
G75*
G03*
X169950000Y-170000000I-1050000J0D01*
G01*
D11*
X170900000Y-170000000D02*
X170900000Y-182000000D01*
X168900000Y-184000000D01*
X155900000Y-184000000D01*
X153900000Y-182000000D01*
X153900000Y-170000000D01*
X155900000Y-168000000D01*
X168900000Y-168000000D01*
X170900000Y-170000000D01*
G36*
X170900000Y-170000000D02*
G01*
X170900000Y-182000000D01*
X168900000Y-184000000D01*
X155900000Y-184000000D01*
X153900000Y-182000000D01*
X153900000Y-170000000D01*
X155900000Y-168000000D01*
X168900000Y-168000000D01*
X170900000Y-170000000D01*
G37*
D10*
X170086815Y-27912740D02*
G75*
G03*
X170086815Y-27912740I-1050000J0D01*
G01*
D11*
X63000000Y-28000000D02*
X63000000Y-40000000D01*
X61000000Y-42000000D01*
X48000000Y-42000000D01*
X46000000Y-40000000D01*
X46000000Y-28000000D01*
X48000000Y-26000000D01*
X61000000Y-26000000D01*
X63000000Y-28000000D01*
G36*
X63000000Y-28000000D02*
G01*
X63000000Y-40000000D01*
X61000000Y-42000000D01*
X48000000Y-42000000D01*
X46000000Y-40000000D01*
X46000000Y-28000000D01*
X48000000Y-26000000D01*
X61000000Y-26000000D01*
X63000000Y-28000000D01*
G37*
D10*
X157050000Y-27900000D02*
G75*
G03*
X157050000Y-27900000I-1050000J0D01*
G01*
M02*
