G04 #@! TF.GenerationSoftware,KiCad,Pcbnew,7.0.6*
G04 #@! TF.CreationDate,2023-08-25T14:35:58+01:00*
G04 #@! TF.ProjectId,gdp_flexible,6764705f-666c-4657-9869-626c652e6b69,1.0*
G04 #@! TF.SameCoordinates,Original*
G04 #@! TF.FileFunction,Profile,NP*
%FSLAX46Y46*%
G04 Gerber Fmt 4.6, Leading zero omitted, Abs format (unit mm)*
G04 Created by KiCad (PCBNEW 7.0.6) date 2023-08-25 14:35:58*
%MOMM*%
%LPD*%
G01*
G04 APERTURE LIST*
G04 #@! TA.AperFunction,Profile*
%ADD10C,0.100000*%
G04 #@! TD*
G04 APERTURE END LIST*
D10*
X95000000Y-101500000D02*
X90000000Y-104000000D01*
X89000000Y-103000000D02*
G75*
G03*
X90000000Y-104000000I1000000J0D01*
G01*
X90000000Y-112000000D02*
X95000000Y-114500000D01*
X90000000Y-112000000D02*
G75*
G03*
X89000000Y-113000000I0J-1000000D01*
G01*
X101000000Y-101500000D02*
X95000000Y-101500000D01*
X101000000Y-114500000D02*
X95000000Y-114500000D01*
X101000000Y-116000000D02*
G75*
G03*
X104000000Y-119000000I3000000J0D01*
G01*
X115000000Y-121000000D02*
G75*
G03*
X113000000Y-119000000I-2000000J0D01*
G01*
X101000000Y-114500000D02*
X101000000Y-116000000D01*
X113000000Y-119000000D02*
X104000000Y-119000000D01*
X138000000Y-90000000D02*
X149500000Y-90000000D01*
X173000000Y-24200000D02*
G75*
G03*
X171800000Y-23000000I-1200000J0D01*
G01*
X122000000Y-175000000D02*
X122000000Y-121000000D01*
X151000000Y-108500000D02*
G75*
G03*
X149500000Y-107000000I-1500000J0D01*
G01*
X63800000Y-43000000D02*
G75*
G03*
X65000000Y-41800000I0J1200000D01*
G01*
X136000000Y-88000000D02*
G75*
G03*
X138000000Y-90000000I2000000J0D01*
G01*
X153200000Y-166000000D02*
G75*
G03*
X152000000Y-167200000I0J-1200000D01*
G01*
X139300000Y-107000000D02*
X138000000Y-107000000D01*
X152200000Y-77500000D02*
X172800000Y-77500000D01*
X89000000Y-103000000D02*
X89000000Y-49000000D01*
X150500000Y-177000000D02*
X124000000Y-177000000D01*
X173000000Y-24200000D02*
X173000000Y-41800000D01*
X124000000Y-119000000D02*
G75*
G03*
X122000000Y-121000000I0J-2000000D01*
G01*
X136000000Y-81000000D02*
G75*
G03*
X133000000Y-78000000I-3000000J0D01*
G01*
X153200000Y-43000000D02*
X171800000Y-43000000D01*
X152000000Y-32500000D02*
G75*
G03*
X150500000Y-31000000I-1500000J0D01*
G01*
X88000000Y-48000000D02*
X40000000Y-48000000D01*
X44000000Y-24200000D02*
X44000000Y-41800000D01*
X45200000Y-43000000D02*
X63800000Y-43000000D01*
X101000000Y-101500000D02*
X101000000Y-81000000D01*
X149500000Y-90000000D02*
G75*
G03*
X151000000Y-88500000I0J1500000D01*
G01*
X66500000Y-31000000D02*
X113000000Y-31000000D01*
X174000000Y-78700000D02*
G75*
G03*
X172800000Y-77500000I-1200000J0D01*
G01*
X171800000Y-43000000D02*
G75*
G03*
X173000000Y-41800000I0J1200000D01*
G01*
X88000000Y-166700000D02*
G75*
G03*
X89000000Y-165700000I0J1000000D01*
G01*
X89000000Y-165700000D02*
X89000000Y-113000000D01*
X133000000Y-119000000D02*
X124000000Y-119000000D01*
X113000000Y-78000000D02*
G75*
G03*
X115000000Y-76000000I0J2000000D01*
G01*
X124000000Y-78000000D02*
X133000000Y-78000000D01*
X138000000Y-107000000D02*
G75*
G03*
X136000000Y-109000000I0J-2000000D01*
G01*
X65000000Y-32500000D02*
X65000000Y-41800000D01*
X115000000Y-33000000D02*
G75*
G03*
X113000000Y-31000000I-2000000J0D01*
G01*
X152000000Y-41800000D02*
G75*
G03*
X153200000Y-43000000I1200000J0D01*
G01*
X171800000Y-23000000D02*
X122500000Y-23000000D01*
X39000000Y-49000000D02*
X39000000Y-165700000D01*
X171800000Y-186000000D02*
G75*
G03*
X173000000Y-184800000I0J1200000D01*
G01*
X151000000Y-118300000D02*
G75*
G03*
X152200000Y-119500000I1200000J0D01*
G01*
X115000000Y-184000000D02*
G75*
G03*
X117000000Y-186000000I2000000J0D01*
G01*
X45200000Y-23000000D02*
G75*
G03*
X44000000Y-24200000I0J-1200000D01*
G01*
X115000000Y-121000000D02*
X115000000Y-184000000D01*
X149500000Y-107000000D02*
X139300000Y-107000000D01*
X44000000Y-41800000D02*
G75*
G03*
X45200000Y-43000000I1200000J0D01*
G01*
X40000000Y-166700000D02*
X88000000Y-166700000D01*
X172800000Y-119500000D02*
X152200000Y-119500000D01*
X136000000Y-81000000D02*
X136000000Y-88000000D01*
X122500000Y-23000000D02*
X114500000Y-23000000D01*
X152000000Y-167200000D02*
X152000000Y-175500000D01*
X151000000Y-108500000D02*
X151000000Y-118300000D01*
X150500000Y-177000000D02*
G75*
G03*
X152000000Y-175500000I0J1500000D01*
G01*
X152000000Y-32500000D02*
X152000000Y-41800000D01*
X104000000Y-78000000D02*
G75*
G03*
X101000000Y-81000000I0J-3000000D01*
G01*
X136000000Y-113300000D02*
X136000000Y-116000000D01*
X122000000Y-76000000D02*
X122000000Y-33000000D01*
X40000000Y-48000000D02*
G75*
G03*
X39000000Y-49000000I0J-1000000D01*
G01*
X122000000Y-175000000D02*
G75*
G03*
X124000000Y-177000000I2000000J0D01*
G01*
X133000000Y-119000000D02*
G75*
G03*
X136000000Y-116000000I0J3000000D01*
G01*
X122000000Y-76000000D02*
G75*
G03*
X124000000Y-78000000I2000000J0D01*
G01*
X104000000Y-78000000D02*
X113000000Y-78000000D01*
X117000000Y-186000000D02*
X171800000Y-186000000D01*
X152200000Y-77500000D02*
G75*
G03*
X151000000Y-78700000I0J-1200000D01*
G01*
X172800000Y-119500000D02*
G75*
G03*
X174000000Y-118300000I0J1200000D01*
G01*
X66500000Y-31000000D02*
G75*
G03*
X65000000Y-32500000I0J-1500000D01*
G01*
X151000000Y-88500000D02*
X151000000Y-78700000D01*
X174000000Y-78700000D02*
X174000000Y-118300000D01*
X89000000Y-49000000D02*
G75*
G03*
X88000000Y-48000000I-1000000J0D01*
G01*
X173000000Y-167200000D02*
G75*
G03*
X171800000Y-166000000I-1200000J0D01*
G01*
X124000000Y-31000000D02*
G75*
G03*
X122000000Y-33000000I0J-2000000D01*
G01*
X153200000Y-166000000D02*
X171800000Y-166000000D01*
X173000000Y-167200000D02*
X173000000Y-184800000D01*
X115000000Y-76000000D02*
X115000000Y-33000000D01*
X124000000Y-31000000D02*
X150500000Y-31000000D01*
X136000000Y-109000000D02*
X136000000Y-113300000D01*
X39000000Y-165700000D02*
G75*
G03*
X40000000Y-166700000I1000000J0D01*
G01*
X114500000Y-23000000D02*
X45200000Y-23000000D01*
M02*
