%TF.GenerationSoftware,KiCad,Pcbnew,7.0.6*%
%TF.CreationDate,2023-08-25T14:36:15+01:00*%
%TF.ProjectId,gdp_flexible,6764705f-666c-4657-9869-626c652e6b69,1.0*%
%TF.SameCoordinates,Original*%
%TF.FileFunction,Drillmap*%
%TF.FilePolarity,Positive*%
%FSLAX45Y45*%
G04 Gerber Fmt 4.5, Leading zero omitted, Abs format (unit mm)*
G04 Created by KiCad (PCBNEW 7.0.6) date 2023-08-25 14:36:15*
%MOMM*%
%LPD*%
G01*
G04 APERTURE LIST*
%ADD10C,0.100000*%
%ADD11C,0.200000*%
%ADD12C,0.035000*%
%ADD13C,0.040000*%
G04 APERTURE END LIST*
D10*
X9500000Y-10150000D02*
X9000000Y-10400000D01*
X8900000Y-10300000D02*
G75*
G03*
X9000000Y-10400000I100000J0D01*
G01*
X9000000Y-11200000D02*
X9500000Y-11450000D01*
X9000000Y-11200000D02*
G75*
G03*
X8900000Y-11300000I0J-100000D01*
G01*
X10100000Y-10150000D02*
X9500000Y-10150000D01*
X10100000Y-11450000D02*
X9500000Y-11450000D01*
X10100000Y-11600000D02*
G75*
G03*
X10400000Y-11900000I300000J0D01*
G01*
X11500000Y-12100000D02*
G75*
G03*
X11300000Y-11900000I-200000J0D01*
G01*
X10100000Y-11450000D02*
X10100000Y-11600000D01*
X11300000Y-11900000D02*
X10400000Y-11900000D01*
X13800000Y-9000000D02*
X14950000Y-9000000D01*
X17300000Y-2420000D02*
G75*
G03*
X17180000Y-2300000I-120000J0D01*
G01*
X12200000Y-17500000D02*
X12200000Y-12100000D01*
X15100000Y-10850000D02*
G75*
G03*
X14950000Y-10700000I-150000J0D01*
G01*
X6380000Y-4300000D02*
G75*
G03*
X6500000Y-4180000I0J120000D01*
G01*
X13600000Y-8800000D02*
G75*
G03*
X13800000Y-9000000I200000J0D01*
G01*
X15320000Y-16600000D02*
G75*
G03*
X15200000Y-16720000I0J-120000D01*
G01*
X13930000Y-10700000D02*
X13800000Y-10700000D01*
X15220000Y-7750000D02*
X17280000Y-7750000D01*
X8900000Y-10300000D02*
X8900000Y-4900000D01*
X15050000Y-17700000D02*
X12400000Y-17700000D01*
X17300000Y-2420000D02*
X17300000Y-4180000D01*
X12400000Y-11900000D02*
G75*
G03*
X12200000Y-12100000I0J-200000D01*
G01*
X13600000Y-8100000D02*
G75*
G03*
X13300000Y-7800000I-300000J0D01*
G01*
X15320000Y-4300000D02*
X17180000Y-4300000D01*
X15200000Y-3250000D02*
G75*
G03*
X15050000Y-3100000I-150000J0D01*
G01*
X8800000Y-4800000D02*
X4000000Y-4800000D01*
X4400000Y-2420000D02*
X4400000Y-4180000D01*
X4520000Y-4300000D02*
X6380000Y-4300000D01*
X10100000Y-10150000D02*
X10100000Y-8100000D01*
X14950000Y-9000000D02*
G75*
G03*
X15100000Y-8850000I0J150000D01*
G01*
X6650000Y-3100000D02*
X11300000Y-3100000D01*
X17400000Y-7870000D02*
G75*
G03*
X17280000Y-7750000I-120000J0D01*
G01*
X17180000Y-4300000D02*
G75*
G03*
X17300000Y-4180000I0J120000D01*
G01*
X8800000Y-16670000D02*
G75*
G03*
X8900000Y-16570000I0J100000D01*
G01*
X8900000Y-16570000D02*
X8900000Y-11300000D01*
X13300000Y-11900000D02*
X12400000Y-11900000D01*
X11300000Y-7800000D02*
G75*
G03*
X11500000Y-7600000I0J200000D01*
G01*
X12400000Y-7800000D02*
X13300000Y-7800000D01*
X13800000Y-10700000D02*
G75*
G03*
X13600000Y-10900000I0J-200000D01*
G01*
X6500000Y-3250000D02*
X6500000Y-4180000D01*
X11500000Y-3300000D02*
G75*
G03*
X11300000Y-3100000I-200000J0D01*
G01*
X15200000Y-4180000D02*
G75*
G03*
X15320000Y-4300000I120000J0D01*
G01*
X17180000Y-2300000D02*
X12250000Y-2300000D01*
X3900000Y-4900000D02*
X3900000Y-16570000D01*
X17180000Y-18600000D02*
G75*
G03*
X17300000Y-18480000I0J120000D01*
G01*
X15100000Y-11830000D02*
G75*
G03*
X15220000Y-11950000I120000J0D01*
G01*
X11500000Y-18400000D02*
G75*
G03*
X11700000Y-18600000I200000J0D01*
G01*
X4520000Y-2300000D02*
G75*
G03*
X4400000Y-2420000I0J-120000D01*
G01*
X11500000Y-12100000D02*
X11500000Y-18400000D01*
X14950000Y-10700000D02*
X13930000Y-10700000D01*
X4400000Y-4180000D02*
G75*
G03*
X4520000Y-4300000I120000J0D01*
G01*
X4000000Y-16670000D02*
X8800000Y-16670000D01*
X17280000Y-11950000D02*
X15220000Y-11950000D01*
X13600000Y-8100000D02*
X13600000Y-8800000D01*
X12250000Y-2300000D02*
X11450000Y-2300000D01*
X15200000Y-16720000D02*
X15200000Y-17550000D01*
X15100000Y-10850000D02*
X15100000Y-11830000D01*
X15050000Y-17700000D02*
G75*
G03*
X15200000Y-17550000I0J150000D01*
G01*
X15200000Y-3250000D02*
X15200000Y-4180000D01*
X10400000Y-7800000D02*
G75*
G03*
X10100000Y-8100000I0J-300000D01*
G01*
X13600000Y-11330000D02*
X13600000Y-11600000D01*
X12200000Y-7600000D02*
X12200000Y-3300000D01*
X4000000Y-4800000D02*
G75*
G03*
X3900000Y-4900000I0J-100000D01*
G01*
X12200000Y-17500000D02*
G75*
G03*
X12400000Y-17700000I200000J0D01*
G01*
X13300000Y-11900000D02*
G75*
G03*
X13600000Y-11600000I0J300000D01*
G01*
X12200000Y-7600000D02*
G75*
G03*
X12400000Y-7800000I200000J0D01*
G01*
X10400000Y-7800000D02*
X11300000Y-7800000D01*
X11700000Y-18600000D02*
X17180000Y-18600000D01*
X15220000Y-7750000D02*
G75*
G03*
X15100000Y-7870000I0J-120000D01*
G01*
X17280000Y-11950000D02*
G75*
G03*
X17400000Y-11830000I0J120000D01*
G01*
X6650000Y-3100000D02*
G75*
G03*
X6500000Y-3250000I0J-150000D01*
G01*
X15100000Y-8850000D02*
X15100000Y-7870000D01*
X17400000Y-7870000D02*
X17400000Y-11830000D01*
X8900000Y-4900000D02*
G75*
G03*
X8800000Y-4800000I-100000J0D01*
G01*
X17300000Y-16720000D02*
G75*
G03*
X17180000Y-16600000I-120000J0D01*
G01*
X12400000Y-3100000D02*
G75*
G03*
X12200000Y-3300000I0J-200000D01*
G01*
X15320000Y-16600000D02*
X17180000Y-16600000D01*
X17300000Y-16720000D02*
X17300000Y-18480000D01*
X11500000Y-7600000D02*
X11500000Y-3300000D01*
X12400000Y-3100000D02*
X15050000Y-3100000D01*
X13600000Y-10900000D02*
X13600000Y-11330000D01*
X3900000Y-16570000D02*
G75*
G03*
X4000000Y-16670000I100000J0D01*
G01*
X11450000Y-2300000D02*
X4520000Y-2300000D01*
D11*
D12*
X5507500Y-10632500D02*
X5542500Y-10667500D01*
X5542500Y-10632500D02*
X5507500Y-10667500D01*
X5627500Y-10632500D02*
X5662500Y-10667500D01*
X5662500Y-10632500D02*
X5627500Y-10667500D01*
X5767500Y-10852500D02*
X5802500Y-10887500D01*
X5802500Y-10852500D02*
X5767500Y-10887500D01*
X7407500Y-10912500D02*
X7442500Y-10947500D01*
X7442500Y-10912500D02*
X7407500Y-10947500D01*
X7537500Y-10912500D02*
X7572500Y-10947500D01*
X7572500Y-10912500D02*
X7537500Y-10947500D01*
X7617500Y-10632500D02*
X7652500Y-10667500D01*
X7652500Y-10632500D02*
X7617500Y-10667500D01*
X7667500Y-10912500D02*
X7702500Y-10947500D01*
X7702500Y-10912500D02*
X7667500Y-10947500D01*
X7737500Y-10632500D02*
X7772500Y-10667500D01*
X7772500Y-10632500D02*
X7737500Y-10667500D01*
X9377500Y-10909440D02*
X9412500Y-10944440D01*
X9412500Y-10909440D02*
X9377500Y-10944440D01*
D13*
X4835878Y-2464122D02*
G75*
G03*
X4835878Y-2464122I-20000J0D01*
G01*
X6880000Y-2984122D02*
G75*
G03*
X6880000Y-2984122I-20000J0D01*
G01*
X6890000Y-2634122D02*
G75*
G03*
X6890000Y-2634122I-20000J0D01*
G01*
X6890000Y-2814122D02*
G75*
G03*
X6890000Y-2814122I-20000J0D01*
G01*
X9780000Y-10960000D02*
G75*
G03*
X9780000Y-10960000I-20000J0D01*
G01*
X9940000Y-11019950D02*
G75*
G03*
X9940000Y-11019950I-20000J0D01*
G01*
X9960000Y-10590000D02*
G75*
G03*
X9960000Y-10590000I-20000J0D01*
G01*
X10440000Y-10030000D02*
G75*
G03*
X10440000Y-10030000I-20000J0D01*
G01*
X10504222Y-8204122D02*
G75*
G03*
X10504222Y-8204122I-20000J0D01*
G01*
X10520000Y-10930000D02*
G75*
G03*
X10520000Y-10930000I-20000J0D01*
G01*
X10520000Y-11100000D02*
G75*
G03*
X10520000Y-11100000I-20000J0D01*
G01*
X10577222Y-10360000D02*
G75*
G03*
X10577222Y-10360000I-20000J0D01*
G01*
X10710000Y-8790000D02*
G75*
G03*
X10710000Y-8790000I-20000J0D01*
G01*
X10714222Y-9054122D02*
G75*
G03*
X10714222Y-9054122I-20000J0D01*
G01*
X11034222Y-9474122D02*
G75*
G03*
X11034222Y-9474122I-20000J0D01*
G01*
X11120000Y-10860000D02*
G75*
G03*
X11120000Y-10860000I-20000J0D01*
G01*
X11134222Y-8644122D02*
G75*
G03*
X11134222Y-8644122I-20000J0D01*
G01*
X11140000Y-10330000D02*
G75*
G03*
X11140000Y-10330000I-20000J0D01*
G01*
X11180000Y-2964122D02*
G75*
G03*
X11180000Y-2964122I-20000J0D01*
G01*
X11190000Y-2694122D02*
G75*
G03*
X11190000Y-2694122I-20000J0D01*
G01*
X11213470Y-9984873D02*
G75*
G03*
X11213470Y-9984873I-20000J0D01*
G01*
X11234222Y-9694122D02*
G75*
G03*
X11234222Y-9694122I-20000J0D01*
G01*
X11294222Y-10124122D02*
G75*
G03*
X11294222Y-10124122I-20000J0D01*
G01*
X11384222Y-9834122D02*
G75*
G03*
X11384222Y-9834122I-20000J0D01*
G01*
X11444222Y-8724122D02*
G75*
G03*
X11444222Y-8724122I-20000J0D01*
G01*
X11514222Y-9304122D02*
G75*
G03*
X11514222Y-9304122I-20000J0D01*
G01*
X11570000Y-7840000D02*
G75*
G03*
X11570000Y-7840000I-20000J0D01*
G01*
X11570000Y-11860000D02*
G75*
G03*
X11570000Y-11860000I-20000J0D01*
G01*
X11654222Y-9834122D02*
G75*
G03*
X11654222Y-9834122I-20000J0D01*
G01*
X11700000Y-2830000D02*
G75*
G03*
X11700000Y-2830000I-20000J0D01*
G01*
X11710000Y-2584122D02*
G75*
G03*
X11710000Y-2584122I-20000J0D01*
G01*
X11764222Y-8144122D02*
G75*
G03*
X11764222Y-8144122I-20000J0D01*
G01*
X11774222Y-9384122D02*
G75*
G03*
X11774222Y-9384122I-20000J0D01*
G01*
X11874222Y-9834122D02*
G75*
G03*
X11874222Y-9834122I-20000J0D01*
G01*
X11874222Y-10084122D02*
G75*
G03*
X11874222Y-10084122I-20000J0D01*
G01*
X11884222Y-8264122D02*
G75*
G03*
X11884222Y-8264122I-20000J0D01*
G01*
X11944222Y-9384122D02*
G75*
G03*
X11944222Y-9384122I-20000J0D01*
G01*
X11960000Y-8920000D02*
G75*
G03*
X11960000Y-8920000I-20000J0D01*
G01*
X12004222Y-10984122D02*
G75*
G03*
X12004222Y-10984122I-20000J0D01*
G01*
X12024222Y-8414122D02*
G75*
G03*
X12024222Y-8414122I-20000J0D01*
G01*
X12134222Y-10984122D02*
G75*
G03*
X12134222Y-10984122I-20000J0D01*
G01*
X12134222Y-11154122D02*
G75*
G03*
X12134222Y-11154122I-20000J0D01*
G01*
X12145729Y-10428372D02*
G75*
G03*
X12145729Y-10428372I-20000J0D01*
G01*
X12161437Y-10002220D02*
G75*
G03*
X12161437Y-10002220I-20000J0D01*
G01*
X12168467Y-9819435D02*
G75*
G03*
X12168467Y-9819435I-20000J0D01*
G01*
X12170000Y-11860000D02*
G75*
G03*
X12170000Y-11860000I-20000J0D01*
G01*
X12176669Y-9627276D02*
G75*
G03*
X12176669Y-9627276I-20000J0D01*
G01*
X12180000Y-7840000D02*
G75*
G03*
X12180000Y-7840000I-20000J0D01*
G01*
X12201572Y-10511208D02*
G75*
G03*
X12201572Y-10511208I-20000J0D01*
G01*
X12224222Y-8834122D02*
G75*
G03*
X12224222Y-8834122I-20000J0D01*
G01*
X12244222Y-8464122D02*
G75*
G03*
X12244222Y-8464122I-20000J0D01*
G01*
X12264222Y-10984122D02*
G75*
G03*
X12264222Y-10984122I-20000J0D01*
G01*
X12264222Y-11154122D02*
G75*
G03*
X12264222Y-11154122I-20000J0D01*
G01*
X12344222Y-9824122D02*
G75*
G03*
X12344222Y-9824122I-20000J0D01*
G01*
X12344222Y-10009250D02*
G75*
G03*
X12344222Y-10009250I-20000J0D01*
G01*
X12348909Y-9627276D02*
G75*
G03*
X12348909Y-9627276I-20000J0D01*
G01*
X12388222Y-10984122D02*
G75*
G03*
X12388222Y-10984122I-20000J0D01*
G01*
X12470000Y-9310000D02*
G75*
G03*
X12470000Y-9310000I-20000J0D01*
G01*
X12525835Y-9825294D02*
G75*
G03*
X12525835Y-9825294I-20000J0D01*
G01*
X12528179Y-10008079D02*
G75*
G03*
X12528179Y-10008079I-20000J0D01*
G01*
X12534037Y-9624933D02*
G75*
G03*
X12534037Y-9624933I-20000J0D01*
G01*
X12564222Y-10434122D02*
G75*
G03*
X12564222Y-10434122I-20000J0D01*
G01*
X12684222Y-10434122D02*
G75*
G03*
X12684222Y-10434122I-20000J0D01*
G01*
X12744222Y-8624122D02*
G75*
G03*
X12744222Y-8624122I-20000J0D01*
G01*
X12794222Y-10434122D02*
G75*
G03*
X12794222Y-10434122I-20000J0D01*
G01*
X12862608Y-11140000D02*
G75*
G03*
X12862608Y-11140000I-20000J0D01*
G01*
X12870000Y-9020000D02*
G75*
G03*
X12870000Y-9020000I-20000J0D01*
G01*
X13010000Y-10630000D02*
G75*
G03*
X13010000Y-10630000I-20000J0D01*
G01*
X13064222Y-9014122D02*
G75*
G03*
X13064222Y-9014122I-20000J0D01*
G01*
X13084222Y-11564122D02*
G75*
G03*
X13084222Y-11564122I-20000J0D01*
G01*
X13194222Y-11004122D02*
G75*
G03*
X13194222Y-11004122I-20000J0D01*
G01*
X13234222Y-8144122D02*
G75*
G03*
X13234222Y-8144122I-20000J0D01*
G01*
X13266142Y-11464396D02*
G75*
G03*
X13266142Y-11464396I-20000J0D01*
G01*
X13358455Y-9743670D02*
G75*
G03*
X13358455Y-9743670I-20000J0D01*
G01*
X13370000Y-8750000D02*
G75*
G03*
X13370000Y-8750000I-20000J0D01*
G01*
X13590000Y-17870000D02*
G75*
G03*
X13590000Y-17870000I-20000J0D01*
G01*
X13900000Y-17870000D02*
G75*
G03*
X13900000Y-17870000I-20000J0D01*
G01*
X13900000Y-18300000D02*
G75*
G03*
X13900000Y-18300000I-20000J0D01*
G01*
X14440000Y-2830000D02*
G75*
G03*
X14440000Y-2830000I-20000J0D01*
G01*
X14647553Y-2954122D02*
G75*
G03*
X14647553Y-2954122I-20000J0D01*
G01*
X14750000Y-18000000D02*
G75*
G03*
X14750000Y-18000000I-20000J0D01*
G01*
X14750000Y-18260000D02*
G75*
G03*
X14750000Y-18260000I-20000J0D01*
G01*
X14870000Y-2829575D02*
G75*
G03*
X14870000Y-2829575I-20000J0D01*
G01*
X14920000Y-17870000D02*
G75*
G03*
X14920000Y-17870000I-20000J0D01*
G01*
X14920000Y-18140000D02*
G75*
G03*
X14920000Y-18140000I-20000J0D01*
G01*
X14970000Y-2654122D02*
G75*
G03*
X14970000Y-2654122I-20000J0D01*
G01*
X15050000Y-18000000D02*
G75*
G03*
X15050000Y-18000000I-20000J0D01*
G01*
D11*
X4155777Y-18916484D02*
X4155777Y-18716484D01*
X4155777Y-18716484D02*
X4203396Y-18716484D01*
X4203396Y-18716484D02*
X4231967Y-18726008D01*
X4231967Y-18726008D02*
X4251015Y-18745055D01*
X4251015Y-18745055D02*
X4260539Y-18764103D01*
X4260539Y-18764103D02*
X4270063Y-18802198D01*
X4270063Y-18802198D02*
X4270063Y-18830770D01*
X4270063Y-18830770D02*
X4260539Y-18868865D01*
X4260539Y-18868865D02*
X4251015Y-18887912D01*
X4251015Y-18887912D02*
X4231967Y-18906960D01*
X4231967Y-18906960D02*
X4203396Y-18916484D01*
X4203396Y-18916484D02*
X4155777Y-18916484D01*
X4355777Y-18916484D02*
X4355777Y-18783150D01*
X4355777Y-18821246D02*
X4365301Y-18802198D01*
X4365301Y-18802198D02*
X4374824Y-18792674D01*
X4374824Y-18792674D02*
X4393872Y-18783150D01*
X4393872Y-18783150D02*
X4412920Y-18783150D01*
X4479586Y-18916484D02*
X4479586Y-18783150D01*
X4479586Y-18716484D02*
X4470063Y-18726008D01*
X4470063Y-18726008D02*
X4479586Y-18735531D01*
X4479586Y-18735531D02*
X4489110Y-18726008D01*
X4489110Y-18726008D02*
X4479586Y-18716484D01*
X4479586Y-18716484D02*
X4479586Y-18735531D01*
X4603396Y-18916484D02*
X4584348Y-18906960D01*
X4584348Y-18906960D02*
X4574824Y-18887912D01*
X4574824Y-18887912D02*
X4574824Y-18716484D01*
X4708158Y-18916484D02*
X4689110Y-18906960D01*
X4689110Y-18906960D02*
X4679586Y-18887912D01*
X4679586Y-18887912D02*
X4679586Y-18716484D01*
X4936729Y-18916484D02*
X4936729Y-18716484D01*
X4936729Y-18716484D02*
X5003396Y-18859341D01*
X5003396Y-18859341D02*
X5070063Y-18716484D01*
X5070063Y-18716484D02*
X5070063Y-18916484D01*
X5251015Y-18916484D02*
X5251015Y-18811722D01*
X5251015Y-18811722D02*
X5241491Y-18792674D01*
X5241491Y-18792674D02*
X5222444Y-18783150D01*
X5222444Y-18783150D02*
X5184348Y-18783150D01*
X5184348Y-18783150D02*
X5165301Y-18792674D01*
X5251015Y-18906960D02*
X5231967Y-18916484D01*
X5231967Y-18916484D02*
X5184348Y-18916484D01*
X5184348Y-18916484D02*
X5165301Y-18906960D01*
X5165301Y-18906960D02*
X5155777Y-18887912D01*
X5155777Y-18887912D02*
X5155777Y-18868865D01*
X5155777Y-18868865D02*
X5165301Y-18849817D01*
X5165301Y-18849817D02*
X5184348Y-18840293D01*
X5184348Y-18840293D02*
X5231967Y-18840293D01*
X5231967Y-18840293D02*
X5251015Y-18830770D01*
X5346253Y-18783150D02*
X5346253Y-18983150D01*
X5346253Y-18792674D02*
X5365301Y-18783150D01*
X5365301Y-18783150D02*
X5403396Y-18783150D01*
X5403396Y-18783150D02*
X5422444Y-18792674D01*
X5422444Y-18792674D02*
X5431967Y-18802198D01*
X5431967Y-18802198D02*
X5441491Y-18821246D01*
X5441491Y-18821246D02*
X5441491Y-18878389D01*
X5441491Y-18878389D02*
X5431967Y-18897436D01*
X5431967Y-18897436D02*
X5422444Y-18906960D01*
X5422444Y-18906960D02*
X5403396Y-18916484D01*
X5403396Y-18916484D02*
X5365301Y-18916484D01*
X5365301Y-18916484D02*
X5346253Y-18906960D01*
X5527205Y-18897436D02*
X5536729Y-18906960D01*
X5536729Y-18906960D02*
X5527205Y-18916484D01*
X5527205Y-18916484D02*
X5517682Y-18906960D01*
X5517682Y-18906960D02*
X5527205Y-18897436D01*
X5527205Y-18897436D02*
X5527205Y-18916484D01*
X5527205Y-18792674D02*
X5536729Y-18802198D01*
X5536729Y-18802198D02*
X5527205Y-18811722D01*
X5527205Y-18811722D02*
X5517682Y-18802198D01*
X5517682Y-18802198D02*
X5527205Y-18792674D01*
X5527205Y-18792674D02*
X5527205Y-18811722D01*
D12*
X3860000Y-19227500D02*
X3895000Y-19262500D01*
X3895000Y-19227500D02*
X3860000Y-19262500D01*
D11*
X4193872Y-19136484D02*
X4212920Y-19136484D01*
X4212920Y-19136484D02*
X4231967Y-19146008D01*
X4231967Y-19146008D02*
X4241491Y-19155531D01*
X4241491Y-19155531D02*
X4251015Y-19174579D01*
X4251015Y-19174579D02*
X4260539Y-19212674D01*
X4260539Y-19212674D02*
X4260539Y-19260293D01*
X4260539Y-19260293D02*
X4251015Y-19298389D01*
X4251015Y-19298389D02*
X4241491Y-19317436D01*
X4241491Y-19317436D02*
X4231967Y-19326960D01*
X4231967Y-19326960D02*
X4212920Y-19336484D01*
X4212920Y-19336484D02*
X4193872Y-19336484D01*
X4193872Y-19336484D02*
X4174824Y-19326960D01*
X4174824Y-19326960D02*
X4165301Y-19317436D01*
X4165301Y-19317436D02*
X4155777Y-19298389D01*
X4155777Y-19298389D02*
X4146253Y-19260293D01*
X4146253Y-19260293D02*
X4146253Y-19212674D01*
X4146253Y-19212674D02*
X4155777Y-19174579D01*
X4155777Y-19174579D02*
X4165301Y-19155531D01*
X4165301Y-19155531D02*
X4174824Y-19146008D01*
X4174824Y-19146008D02*
X4193872Y-19136484D01*
X4346253Y-19317436D02*
X4355777Y-19326960D01*
X4355777Y-19326960D02*
X4346253Y-19336484D01*
X4346253Y-19336484D02*
X4336729Y-19326960D01*
X4336729Y-19326960D02*
X4346253Y-19317436D01*
X4346253Y-19317436D02*
X4346253Y-19336484D01*
X4422444Y-19136484D02*
X4546253Y-19136484D01*
X4546253Y-19136484D02*
X4479586Y-19212674D01*
X4479586Y-19212674D02*
X4508158Y-19212674D01*
X4508158Y-19212674D02*
X4527205Y-19222198D01*
X4527205Y-19222198D02*
X4536729Y-19231722D01*
X4536729Y-19231722D02*
X4546253Y-19250770D01*
X4546253Y-19250770D02*
X4546253Y-19298389D01*
X4546253Y-19298389D02*
X4536729Y-19317436D01*
X4536729Y-19317436D02*
X4527205Y-19326960D01*
X4527205Y-19326960D02*
X4508158Y-19336484D01*
X4508158Y-19336484D02*
X4451015Y-19336484D01*
X4451015Y-19336484D02*
X4431967Y-19326960D01*
X4431967Y-19326960D02*
X4422444Y-19317436D01*
X4727205Y-19136484D02*
X4631967Y-19136484D01*
X4631967Y-19136484D02*
X4622444Y-19231722D01*
X4622444Y-19231722D02*
X4631967Y-19222198D01*
X4631967Y-19222198D02*
X4651015Y-19212674D01*
X4651015Y-19212674D02*
X4698634Y-19212674D01*
X4698634Y-19212674D02*
X4717682Y-19222198D01*
X4717682Y-19222198D02*
X4727205Y-19231722D01*
X4727205Y-19231722D02*
X4736729Y-19250770D01*
X4736729Y-19250770D02*
X4736729Y-19298389D01*
X4736729Y-19298389D02*
X4727205Y-19317436D01*
X4727205Y-19317436D02*
X4717682Y-19326960D01*
X4717682Y-19326960D02*
X4698634Y-19336484D01*
X4698634Y-19336484D02*
X4651015Y-19336484D01*
X4651015Y-19336484D02*
X4631967Y-19326960D01*
X4631967Y-19326960D02*
X4622444Y-19317436D01*
X4860539Y-19136484D02*
X4879586Y-19136484D01*
X4879586Y-19136484D02*
X4898634Y-19146008D01*
X4898634Y-19146008D02*
X4908158Y-19155531D01*
X4908158Y-19155531D02*
X4917682Y-19174579D01*
X4917682Y-19174579D02*
X4927205Y-19212674D01*
X4927205Y-19212674D02*
X4927205Y-19260293D01*
X4927205Y-19260293D02*
X4917682Y-19298389D01*
X4917682Y-19298389D02*
X4908158Y-19317436D01*
X4908158Y-19317436D02*
X4898634Y-19326960D01*
X4898634Y-19326960D02*
X4879586Y-19336484D01*
X4879586Y-19336484D02*
X4860539Y-19336484D01*
X4860539Y-19336484D02*
X4841491Y-19326960D01*
X4841491Y-19326960D02*
X4831967Y-19317436D01*
X4831967Y-19317436D02*
X4822444Y-19298389D01*
X4822444Y-19298389D02*
X4812920Y-19260293D01*
X4812920Y-19260293D02*
X4812920Y-19212674D01*
X4812920Y-19212674D02*
X4822444Y-19174579D01*
X4822444Y-19174579D02*
X4831967Y-19155531D01*
X4831967Y-19155531D02*
X4841491Y-19146008D01*
X4841491Y-19146008D02*
X4860539Y-19136484D01*
X5012920Y-19336484D02*
X5012920Y-19203150D01*
X5012920Y-19222198D02*
X5022444Y-19212674D01*
X5022444Y-19212674D02*
X5041491Y-19203150D01*
X5041491Y-19203150D02*
X5070063Y-19203150D01*
X5070063Y-19203150D02*
X5089110Y-19212674D01*
X5089110Y-19212674D02*
X5098634Y-19231722D01*
X5098634Y-19231722D02*
X5098634Y-19336484D01*
X5098634Y-19231722D02*
X5108158Y-19212674D01*
X5108158Y-19212674D02*
X5127205Y-19203150D01*
X5127205Y-19203150D02*
X5155777Y-19203150D01*
X5155777Y-19203150D02*
X5174825Y-19212674D01*
X5174825Y-19212674D02*
X5184348Y-19231722D01*
X5184348Y-19231722D02*
X5184348Y-19336484D01*
X5279586Y-19336484D02*
X5279586Y-19203150D01*
X5279586Y-19222198D02*
X5289110Y-19212674D01*
X5289110Y-19212674D02*
X5308158Y-19203150D01*
X5308158Y-19203150D02*
X5336729Y-19203150D01*
X5336729Y-19203150D02*
X5355777Y-19212674D01*
X5355777Y-19212674D02*
X5365301Y-19231722D01*
X5365301Y-19231722D02*
X5365301Y-19336484D01*
X5365301Y-19231722D02*
X5374825Y-19212674D01*
X5374825Y-19212674D02*
X5393872Y-19203150D01*
X5393872Y-19203150D02*
X5422444Y-19203150D01*
X5422444Y-19203150D02*
X5441491Y-19212674D01*
X5441491Y-19212674D02*
X5451015Y-19231722D01*
X5451015Y-19231722D02*
X5451015Y-19336484D01*
X5841491Y-19126960D02*
X5670063Y-19384103D01*
X6098634Y-19136484D02*
X6117682Y-19136484D01*
X6117682Y-19136484D02*
X6136729Y-19146008D01*
X6136729Y-19146008D02*
X6146253Y-19155531D01*
X6146253Y-19155531D02*
X6155777Y-19174579D01*
X6155777Y-19174579D02*
X6165301Y-19212674D01*
X6165301Y-19212674D02*
X6165301Y-19260293D01*
X6165301Y-19260293D02*
X6155777Y-19298389D01*
X6155777Y-19298389D02*
X6146253Y-19317436D01*
X6146253Y-19317436D02*
X6136729Y-19326960D01*
X6136729Y-19326960D02*
X6117682Y-19336484D01*
X6117682Y-19336484D02*
X6098634Y-19336484D01*
X6098634Y-19336484D02*
X6079586Y-19326960D01*
X6079586Y-19326960D02*
X6070063Y-19317436D01*
X6070063Y-19317436D02*
X6060539Y-19298389D01*
X6060539Y-19298389D02*
X6051015Y-19260293D01*
X6051015Y-19260293D02*
X6051015Y-19212674D01*
X6051015Y-19212674D02*
X6060539Y-19174579D01*
X6060539Y-19174579D02*
X6070063Y-19155531D01*
X6070063Y-19155531D02*
X6079586Y-19146008D01*
X6079586Y-19146008D02*
X6098634Y-19136484D01*
X6251015Y-19317436D02*
X6260539Y-19326960D01*
X6260539Y-19326960D02*
X6251015Y-19336484D01*
X6251015Y-19336484D02*
X6241491Y-19326960D01*
X6241491Y-19326960D02*
X6251015Y-19317436D01*
X6251015Y-19317436D02*
X6251015Y-19336484D01*
X6384348Y-19136484D02*
X6403396Y-19136484D01*
X6403396Y-19136484D02*
X6422444Y-19146008D01*
X6422444Y-19146008D02*
X6431967Y-19155531D01*
X6431967Y-19155531D02*
X6441491Y-19174579D01*
X6441491Y-19174579D02*
X6451015Y-19212674D01*
X6451015Y-19212674D02*
X6451015Y-19260293D01*
X6451015Y-19260293D02*
X6441491Y-19298389D01*
X6441491Y-19298389D02*
X6431967Y-19317436D01*
X6431967Y-19317436D02*
X6422444Y-19326960D01*
X6422444Y-19326960D02*
X6403396Y-19336484D01*
X6403396Y-19336484D02*
X6384348Y-19336484D01*
X6384348Y-19336484D02*
X6365301Y-19326960D01*
X6365301Y-19326960D02*
X6355777Y-19317436D01*
X6355777Y-19317436D02*
X6346253Y-19298389D01*
X6346253Y-19298389D02*
X6336729Y-19260293D01*
X6336729Y-19260293D02*
X6336729Y-19212674D01*
X6336729Y-19212674D02*
X6346253Y-19174579D01*
X6346253Y-19174579D02*
X6355777Y-19155531D01*
X6355777Y-19155531D02*
X6365301Y-19146008D01*
X6365301Y-19146008D02*
X6384348Y-19136484D01*
X6641491Y-19336484D02*
X6527206Y-19336484D01*
X6584348Y-19336484D02*
X6584348Y-19136484D01*
X6584348Y-19136484D02*
X6565301Y-19165055D01*
X6565301Y-19165055D02*
X6546253Y-19184103D01*
X6546253Y-19184103D02*
X6527206Y-19193627D01*
X6708158Y-19136484D02*
X6831967Y-19136484D01*
X6831967Y-19136484D02*
X6765301Y-19212674D01*
X6765301Y-19212674D02*
X6793872Y-19212674D01*
X6793872Y-19212674D02*
X6812920Y-19222198D01*
X6812920Y-19222198D02*
X6822444Y-19231722D01*
X6822444Y-19231722D02*
X6831967Y-19250770D01*
X6831967Y-19250770D02*
X6831967Y-19298389D01*
X6831967Y-19298389D02*
X6822444Y-19317436D01*
X6822444Y-19317436D02*
X6812920Y-19326960D01*
X6812920Y-19326960D02*
X6793872Y-19336484D01*
X6793872Y-19336484D02*
X6736729Y-19336484D01*
X6736729Y-19336484D02*
X6717682Y-19326960D01*
X6717682Y-19326960D02*
X6708158Y-19317436D01*
X6946253Y-19222198D02*
X6927206Y-19212674D01*
X6927206Y-19212674D02*
X6917682Y-19203150D01*
X6917682Y-19203150D02*
X6908158Y-19184103D01*
X6908158Y-19184103D02*
X6908158Y-19174579D01*
X6908158Y-19174579D02*
X6917682Y-19155531D01*
X6917682Y-19155531D02*
X6927206Y-19146008D01*
X6927206Y-19146008D02*
X6946253Y-19136484D01*
X6946253Y-19136484D02*
X6984348Y-19136484D01*
X6984348Y-19136484D02*
X7003396Y-19146008D01*
X7003396Y-19146008D02*
X7012920Y-19155531D01*
X7012920Y-19155531D02*
X7022444Y-19174579D01*
X7022444Y-19174579D02*
X7022444Y-19184103D01*
X7022444Y-19184103D02*
X7012920Y-19203150D01*
X7012920Y-19203150D02*
X7003396Y-19212674D01*
X7003396Y-19212674D02*
X6984348Y-19222198D01*
X6984348Y-19222198D02*
X6946253Y-19222198D01*
X6946253Y-19222198D02*
X6927206Y-19231722D01*
X6927206Y-19231722D02*
X6917682Y-19241246D01*
X6917682Y-19241246D02*
X6908158Y-19260293D01*
X6908158Y-19260293D02*
X6908158Y-19298389D01*
X6908158Y-19298389D02*
X6917682Y-19317436D01*
X6917682Y-19317436D02*
X6927206Y-19326960D01*
X6927206Y-19326960D02*
X6946253Y-19336484D01*
X6946253Y-19336484D02*
X6984348Y-19336484D01*
X6984348Y-19336484D02*
X7003396Y-19326960D01*
X7003396Y-19326960D02*
X7012920Y-19317436D01*
X7012920Y-19317436D02*
X7022444Y-19298389D01*
X7022444Y-19298389D02*
X7022444Y-19260293D01*
X7022444Y-19260293D02*
X7012920Y-19241246D01*
X7012920Y-19241246D02*
X7003396Y-19231722D01*
X7003396Y-19231722D02*
X6984348Y-19222198D01*
X7098634Y-19136484D02*
X7098634Y-19174579D01*
X7174825Y-19136484D02*
X7174825Y-19174579D01*
X7470063Y-19412674D02*
X7460539Y-19403150D01*
X7460539Y-19403150D02*
X7441491Y-19374579D01*
X7441491Y-19374579D02*
X7431968Y-19355531D01*
X7431968Y-19355531D02*
X7422444Y-19326960D01*
X7422444Y-19326960D02*
X7412920Y-19279341D01*
X7412920Y-19279341D02*
X7412920Y-19241246D01*
X7412920Y-19241246D02*
X7422444Y-19193627D01*
X7422444Y-19193627D02*
X7431968Y-19165055D01*
X7431968Y-19165055D02*
X7441491Y-19146008D01*
X7441491Y-19146008D02*
X7460539Y-19117436D01*
X7460539Y-19117436D02*
X7470063Y-19107912D01*
X7555777Y-19336484D02*
X7593872Y-19336484D01*
X7593872Y-19336484D02*
X7612920Y-19326960D01*
X7612920Y-19326960D02*
X7622444Y-19317436D01*
X7622444Y-19317436D02*
X7641491Y-19288865D01*
X7641491Y-19288865D02*
X7651015Y-19250770D01*
X7651015Y-19250770D02*
X7651015Y-19174579D01*
X7651015Y-19174579D02*
X7641491Y-19155531D01*
X7641491Y-19155531D02*
X7631968Y-19146008D01*
X7631968Y-19146008D02*
X7612920Y-19136484D01*
X7612920Y-19136484D02*
X7574825Y-19136484D01*
X7574825Y-19136484D02*
X7555777Y-19146008D01*
X7555777Y-19146008D02*
X7546253Y-19155531D01*
X7546253Y-19155531D02*
X7536729Y-19174579D01*
X7536729Y-19174579D02*
X7536729Y-19222198D01*
X7536729Y-19222198D02*
X7546253Y-19241246D01*
X7546253Y-19241246D02*
X7555777Y-19250770D01*
X7555777Y-19250770D02*
X7574825Y-19260293D01*
X7574825Y-19260293D02*
X7612920Y-19260293D01*
X7612920Y-19260293D02*
X7631968Y-19250770D01*
X7631968Y-19250770D02*
X7641491Y-19241246D01*
X7641491Y-19241246D02*
X7651015Y-19222198D01*
X7889110Y-19336484D02*
X7889110Y-19136484D01*
X7974825Y-19336484D02*
X7974825Y-19231722D01*
X7974825Y-19231722D02*
X7965301Y-19212674D01*
X7965301Y-19212674D02*
X7946253Y-19203150D01*
X7946253Y-19203150D02*
X7917682Y-19203150D01*
X7917682Y-19203150D02*
X7898634Y-19212674D01*
X7898634Y-19212674D02*
X7889110Y-19222198D01*
X8098634Y-19336484D02*
X8079587Y-19326960D01*
X8079587Y-19326960D02*
X8070063Y-19317436D01*
X8070063Y-19317436D02*
X8060539Y-19298389D01*
X8060539Y-19298389D02*
X8060539Y-19241246D01*
X8060539Y-19241246D02*
X8070063Y-19222198D01*
X8070063Y-19222198D02*
X8079587Y-19212674D01*
X8079587Y-19212674D02*
X8098634Y-19203150D01*
X8098634Y-19203150D02*
X8127206Y-19203150D01*
X8127206Y-19203150D02*
X8146253Y-19212674D01*
X8146253Y-19212674D02*
X8155777Y-19222198D01*
X8155777Y-19222198D02*
X8165301Y-19241246D01*
X8165301Y-19241246D02*
X8165301Y-19298389D01*
X8165301Y-19298389D02*
X8155777Y-19317436D01*
X8155777Y-19317436D02*
X8146253Y-19326960D01*
X8146253Y-19326960D02*
X8127206Y-19336484D01*
X8127206Y-19336484D02*
X8098634Y-19336484D01*
X8279587Y-19336484D02*
X8260539Y-19326960D01*
X8260539Y-19326960D02*
X8251015Y-19307912D01*
X8251015Y-19307912D02*
X8251015Y-19136484D01*
X8431968Y-19326960D02*
X8412920Y-19336484D01*
X8412920Y-19336484D02*
X8374825Y-19336484D01*
X8374825Y-19336484D02*
X8355777Y-19326960D01*
X8355777Y-19326960D02*
X8346253Y-19307912D01*
X8346253Y-19307912D02*
X8346253Y-19231722D01*
X8346253Y-19231722D02*
X8355777Y-19212674D01*
X8355777Y-19212674D02*
X8374825Y-19203150D01*
X8374825Y-19203150D02*
X8412920Y-19203150D01*
X8412920Y-19203150D02*
X8431968Y-19212674D01*
X8431968Y-19212674D02*
X8441492Y-19231722D01*
X8441492Y-19231722D02*
X8441492Y-19250770D01*
X8441492Y-19250770D02*
X8346253Y-19269817D01*
X8517682Y-19326960D02*
X8536730Y-19336484D01*
X8536730Y-19336484D02*
X8574825Y-19336484D01*
X8574825Y-19336484D02*
X8593873Y-19326960D01*
X8593873Y-19326960D02*
X8603396Y-19307912D01*
X8603396Y-19307912D02*
X8603396Y-19298389D01*
X8603396Y-19298389D02*
X8593873Y-19279341D01*
X8593873Y-19279341D02*
X8574825Y-19269817D01*
X8574825Y-19269817D02*
X8546253Y-19269817D01*
X8546253Y-19269817D02*
X8527206Y-19260293D01*
X8527206Y-19260293D02*
X8517682Y-19241246D01*
X8517682Y-19241246D02*
X8517682Y-19231722D01*
X8517682Y-19231722D02*
X8527206Y-19212674D01*
X8527206Y-19212674D02*
X8546253Y-19203150D01*
X8546253Y-19203150D02*
X8574825Y-19203150D01*
X8574825Y-19203150D02*
X8593873Y-19212674D01*
X8670063Y-19412674D02*
X8679587Y-19403150D01*
X8679587Y-19403150D02*
X8698634Y-19374579D01*
X8698634Y-19374579D02*
X8708158Y-19355531D01*
X8708158Y-19355531D02*
X8717682Y-19326960D01*
X8717682Y-19326960D02*
X8727206Y-19279341D01*
X8727206Y-19279341D02*
X8727206Y-19241246D01*
X8727206Y-19241246D02*
X8717682Y-19193627D01*
X8717682Y-19193627D02*
X8708158Y-19165055D01*
X8708158Y-19165055D02*
X8698634Y-19146008D01*
X8698634Y-19146008D02*
X8679587Y-19117436D01*
X8679587Y-19117436D02*
X8670063Y-19107912D01*
D13*
X3895000Y-19509000D02*
G75*
G03*
X3895000Y-19509000I-20000J0D01*
G01*
D11*
X4193872Y-19400484D02*
X4212920Y-19400484D01*
X4212920Y-19400484D02*
X4231967Y-19410008D01*
X4231967Y-19410008D02*
X4241491Y-19419531D01*
X4241491Y-19419531D02*
X4251015Y-19438579D01*
X4251015Y-19438579D02*
X4260539Y-19476674D01*
X4260539Y-19476674D02*
X4260539Y-19524293D01*
X4260539Y-19524293D02*
X4251015Y-19562389D01*
X4251015Y-19562389D02*
X4241491Y-19581436D01*
X4241491Y-19581436D02*
X4231967Y-19590960D01*
X4231967Y-19590960D02*
X4212920Y-19600484D01*
X4212920Y-19600484D02*
X4193872Y-19600484D01*
X4193872Y-19600484D02*
X4174824Y-19590960D01*
X4174824Y-19590960D02*
X4165301Y-19581436D01*
X4165301Y-19581436D02*
X4155777Y-19562389D01*
X4155777Y-19562389D02*
X4146253Y-19524293D01*
X4146253Y-19524293D02*
X4146253Y-19476674D01*
X4146253Y-19476674D02*
X4155777Y-19438579D01*
X4155777Y-19438579D02*
X4165301Y-19419531D01*
X4165301Y-19419531D02*
X4174824Y-19410008D01*
X4174824Y-19410008D02*
X4193872Y-19400484D01*
X4346253Y-19581436D02*
X4355777Y-19590960D01*
X4355777Y-19590960D02*
X4346253Y-19600484D01*
X4346253Y-19600484D02*
X4336729Y-19590960D01*
X4336729Y-19590960D02*
X4346253Y-19581436D01*
X4346253Y-19581436D02*
X4346253Y-19600484D01*
X4527205Y-19467150D02*
X4527205Y-19600484D01*
X4479586Y-19390960D02*
X4431967Y-19533817D01*
X4431967Y-19533817D02*
X4555777Y-19533817D01*
X4670063Y-19400484D02*
X4689110Y-19400484D01*
X4689110Y-19400484D02*
X4708158Y-19410008D01*
X4708158Y-19410008D02*
X4717682Y-19419531D01*
X4717682Y-19419531D02*
X4727205Y-19438579D01*
X4727205Y-19438579D02*
X4736729Y-19476674D01*
X4736729Y-19476674D02*
X4736729Y-19524293D01*
X4736729Y-19524293D02*
X4727205Y-19562389D01*
X4727205Y-19562389D02*
X4717682Y-19581436D01*
X4717682Y-19581436D02*
X4708158Y-19590960D01*
X4708158Y-19590960D02*
X4689110Y-19600484D01*
X4689110Y-19600484D02*
X4670063Y-19600484D01*
X4670063Y-19600484D02*
X4651015Y-19590960D01*
X4651015Y-19590960D02*
X4641491Y-19581436D01*
X4641491Y-19581436D02*
X4631967Y-19562389D01*
X4631967Y-19562389D02*
X4622444Y-19524293D01*
X4622444Y-19524293D02*
X4622444Y-19476674D01*
X4622444Y-19476674D02*
X4631967Y-19438579D01*
X4631967Y-19438579D02*
X4641491Y-19419531D01*
X4641491Y-19419531D02*
X4651015Y-19410008D01*
X4651015Y-19410008D02*
X4670063Y-19400484D01*
X4860539Y-19400484D02*
X4879586Y-19400484D01*
X4879586Y-19400484D02*
X4898634Y-19410008D01*
X4898634Y-19410008D02*
X4908158Y-19419531D01*
X4908158Y-19419531D02*
X4917682Y-19438579D01*
X4917682Y-19438579D02*
X4927205Y-19476674D01*
X4927205Y-19476674D02*
X4927205Y-19524293D01*
X4927205Y-19524293D02*
X4917682Y-19562389D01*
X4917682Y-19562389D02*
X4908158Y-19581436D01*
X4908158Y-19581436D02*
X4898634Y-19590960D01*
X4898634Y-19590960D02*
X4879586Y-19600484D01*
X4879586Y-19600484D02*
X4860539Y-19600484D01*
X4860539Y-19600484D02*
X4841491Y-19590960D01*
X4841491Y-19590960D02*
X4831967Y-19581436D01*
X4831967Y-19581436D02*
X4822444Y-19562389D01*
X4822444Y-19562389D02*
X4812920Y-19524293D01*
X4812920Y-19524293D02*
X4812920Y-19476674D01*
X4812920Y-19476674D02*
X4822444Y-19438579D01*
X4822444Y-19438579D02*
X4831967Y-19419531D01*
X4831967Y-19419531D02*
X4841491Y-19410008D01*
X4841491Y-19410008D02*
X4860539Y-19400484D01*
X5012920Y-19600484D02*
X5012920Y-19467150D01*
X5012920Y-19486198D02*
X5022444Y-19476674D01*
X5022444Y-19476674D02*
X5041491Y-19467150D01*
X5041491Y-19467150D02*
X5070063Y-19467150D01*
X5070063Y-19467150D02*
X5089110Y-19476674D01*
X5089110Y-19476674D02*
X5098634Y-19495722D01*
X5098634Y-19495722D02*
X5098634Y-19600484D01*
X5098634Y-19495722D02*
X5108158Y-19476674D01*
X5108158Y-19476674D02*
X5127205Y-19467150D01*
X5127205Y-19467150D02*
X5155777Y-19467150D01*
X5155777Y-19467150D02*
X5174825Y-19476674D01*
X5174825Y-19476674D02*
X5184348Y-19495722D01*
X5184348Y-19495722D02*
X5184348Y-19600484D01*
X5279586Y-19600484D02*
X5279586Y-19467150D01*
X5279586Y-19486198D02*
X5289110Y-19476674D01*
X5289110Y-19476674D02*
X5308158Y-19467150D01*
X5308158Y-19467150D02*
X5336729Y-19467150D01*
X5336729Y-19467150D02*
X5355777Y-19476674D01*
X5355777Y-19476674D02*
X5365301Y-19495722D01*
X5365301Y-19495722D02*
X5365301Y-19600484D01*
X5365301Y-19495722D02*
X5374825Y-19476674D01*
X5374825Y-19476674D02*
X5393872Y-19467150D01*
X5393872Y-19467150D02*
X5422444Y-19467150D01*
X5422444Y-19467150D02*
X5441491Y-19476674D01*
X5441491Y-19476674D02*
X5451015Y-19495722D01*
X5451015Y-19495722D02*
X5451015Y-19600484D01*
X5841491Y-19390960D02*
X5670063Y-19648103D01*
X6098634Y-19400484D02*
X6117682Y-19400484D01*
X6117682Y-19400484D02*
X6136729Y-19410008D01*
X6136729Y-19410008D02*
X6146253Y-19419531D01*
X6146253Y-19419531D02*
X6155777Y-19438579D01*
X6155777Y-19438579D02*
X6165301Y-19476674D01*
X6165301Y-19476674D02*
X6165301Y-19524293D01*
X6165301Y-19524293D02*
X6155777Y-19562389D01*
X6155777Y-19562389D02*
X6146253Y-19581436D01*
X6146253Y-19581436D02*
X6136729Y-19590960D01*
X6136729Y-19590960D02*
X6117682Y-19600484D01*
X6117682Y-19600484D02*
X6098634Y-19600484D01*
X6098634Y-19600484D02*
X6079586Y-19590960D01*
X6079586Y-19590960D02*
X6070063Y-19581436D01*
X6070063Y-19581436D02*
X6060539Y-19562389D01*
X6060539Y-19562389D02*
X6051015Y-19524293D01*
X6051015Y-19524293D02*
X6051015Y-19476674D01*
X6051015Y-19476674D02*
X6060539Y-19438579D01*
X6060539Y-19438579D02*
X6070063Y-19419531D01*
X6070063Y-19419531D02*
X6079586Y-19410008D01*
X6079586Y-19410008D02*
X6098634Y-19400484D01*
X6251015Y-19581436D02*
X6260539Y-19590960D01*
X6260539Y-19590960D02*
X6251015Y-19600484D01*
X6251015Y-19600484D02*
X6241491Y-19590960D01*
X6241491Y-19590960D02*
X6251015Y-19581436D01*
X6251015Y-19581436D02*
X6251015Y-19600484D01*
X6384348Y-19400484D02*
X6403396Y-19400484D01*
X6403396Y-19400484D02*
X6422444Y-19410008D01*
X6422444Y-19410008D02*
X6431967Y-19419531D01*
X6431967Y-19419531D02*
X6441491Y-19438579D01*
X6441491Y-19438579D02*
X6451015Y-19476674D01*
X6451015Y-19476674D02*
X6451015Y-19524293D01*
X6451015Y-19524293D02*
X6441491Y-19562389D01*
X6441491Y-19562389D02*
X6431967Y-19581436D01*
X6431967Y-19581436D02*
X6422444Y-19590960D01*
X6422444Y-19590960D02*
X6403396Y-19600484D01*
X6403396Y-19600484D02*
X6384348Y-19600484D01*
X6384348Y-19600484D02*
X6365301Y-19590960D01*
X6365301Y-19590960D02*
X6355777Y-19581436D01*
X6355777Y-19581436D02*
X6346253Y-19562389D01*
X6346253Y-19562389D02*
X6336729Y-19524293D01*
X6336729Y-19524293D02*
X6336729Y-19476674D01*
X6336729Y-19476674D02*
X6346253Y-19438579D01*
X6346253Y-19438579D02*
X6355777Y-19419531D01*
X6355777Y-19419531D02*
X6365301Y-19410008D01*
X6365301Y-19410008D02*
X6384348Y-19400484D01*
X6641491Y-19600484D02*
X6527206Y-19600484D01*
X6584348Y-19600484D02*
X6584348Y-19400484D01*
X6584348Y-19400484D02*
X6565301Y-19429055D01*
X6565301Y-19429055D02*
X6546253Y-19448103D01*
X6546253Y-19448103D02*
X6527206Y-19457627D01*
X6822444Y-19400484D02*
X6727206Y-19400484D01*
X6727206Y-19400484D02*
X6717682Y-19495722D01*
X6717682Y-19495722D02*
X6727206Y-19486198D01*
X6727206Y-19486198D02*
X6746253Y-19476674D01*
X6746253Y-19476674D02*
X6793872Y-19476674D01*
X6793872Y-19476674D02*
X6812920Y-19486198D01*
X6812920Y-19486198D02*
X6822444Y-19495722D01*
X6822444Y-19495722D02*
X6831967Y-19514770D01*
X6831967Y-19514770D02*
X6831967Y-19562389D01*
X6831967Y-19562389D02*
X6822444Y-19581436D01*
X6822444Y-19581436D02*
X6812920Y-19590960D01*
X6812920Y-19590960D02*
X6793872Y-19600484D01*
X6793872Y-19600484D02*
X6746253Y-19600484D01*
X6746253Y-19600484D02*
X6727206Y-19590960D01*
X6727206Y-19590960D02*
X6717682Y-19581436D01*
X6898634Y-19400484D02*
X7031967Y-19400484D01*
X7031967Y-19400484D02*
X6946253Y-19600484D01*
X7098634Y-19400484D02*
X7098634Y-19438579D01*
X7174825Y-19400484D02*
X7174825Y-19438579D01*
X7470063Y-19676674D02*
X7460539Y-19667150D01*
X7460539Y-19667150D02*
X7441491Y-19638579D01*
X7441491Y-19638579D02*
X7431968Y-19619531D01*
X7431968Y-19619531D02*
X7422444Y-19590960D01*
X7422444Y-19590960D02*
X7412920Y-19543341D01*
X7412920Y-19543341D02*
X7412920Y-19505246D01*
X7412920Y-19505246D02*
X7422444Y-19457627D01*
X7422444Y-19457627D02*
X7431968Y-19429055D01*
X7431968Y-19429055D02*
X7441491Y-19410008D01*
X7441491Y-19410008D02*
X7460539Y-19381436D01*
X7460539Y-19381436D02*
X7470063Y-19371912D01*
X7574825Y-19486198D02*
X7555777Y-19476674D01*
X7555777Y-19476674D02*
X7546253Y-19467150D01*
X7546253Y-19467150D02*
X7536729Y-19448103D01*
X7536729Y-19448103D02*
X7536729Y-19438579D01*
X7536729Y-19438579D02*
X7546253Y-19419531D01*
X7546253Y-19419531D02*
X7555777Y-19410008D01*
X7555777Y-19410008D02*
X7574825Y-19400484D01*
X7574825Y-19400484D02*
X7612920Y-19400484D01*
X7612920Y-19400484D02*
X7631968Y-19410008D01*
X7631968Y-19410008D02*
X7641491Y-19419531D01*
X7641491Y-19419531D02*
X7651015Y-19438579D01*
X7651015Y-19438579D02*
X7651015Y-19448103D01*
X7651015Y-19448103D02*
X7641491Y-19467150D01*
X7641491Y-19467150D02*
X7631968Y-19476674D01*
X7631968Y-19476674D02*
X7612920Y-19486198D01*
X7612920Y-19486198D02*
X7574825Y-19486198D01*
X7574825Y-19486198D02*
X7555777Y-19495722D01*
X7555777Y-19495722D02*
X7546253Y-19505246D01*
X7546253Y-19505246D02*
X7536729Y-19524293D01*
X7536729Y-19524293D02*
X7536729Y-19562389D01*
X7536729Y-19562389D02*
X7546253Y-19581436D01*
X7546253Y-19581436D02*
X7555777Y-19590960D01*
X7555777Y-19590960D02*
X7574825Y-19600484D01*
X7574825Y-19600484D02*
X7612920Y-19600484D01*
X7612920Y-19600484D02*
X7631968Y-19590960D01*
X7631968Y-19590960D02*
X7641491Y-19581436D01*
X7641491Y-19581436D02*
X7651015Y-19562389D01*
X7651015Y-19562389D02*
X7651015Y-19524293D01*
X7651015Y-19524293D02*
X7641491Y-19505246D01*
X7641491Y-19505246D02*
X7631968Y-19495722D01*
X7631968Y-19495722D02*
X7612920Y-19486198D01*
X7717682Y-19400484D02*
X7851015Y-19400484D01*
X7851015Y-19400484D02*
X7765301Y-19600484D01*
X8079587Y-19600484D02*
X8079587Y-19400484D01*
X8165301Y-19600484D02*
X8165301Y-19495722D01*
X8165301Y-19495722D02*
X8155777Y-19476674D01*
X8155777Y-19476674D02*
X8136730Y-19467150D01*
X8136730Y-19467150D02*
X8108158Y-19467150D01*
X8108158Y-19467150D02*
X8089110Y-19476674D01*
X8089110Y-19476674D02*
X8079587Y-19486198D01*
X8289110Y-19600484D02*
X8270063Y-19590960D01*
X8270063Y-19590960D02*
X8260539Y-19581436D01*
X8260539Y-19581436D02*
X8251015Y-19562389D01*
X8251015Y-19562389D02*
X8251015Y-19505246D01*
X8251015Y-19505246D02*
X8260539Y-19486198D01*
X8260539Y-19486198D02*
X8270063Y-19476674D01*
X8270063Y-19476674D02*
X8289110Y-19467150D01*
X8289110Y-19467150D02*
X8317682Y-19467150D01*
X8317682Y-19467150D02*
X8336730Y-19476674D01*
X8336730Y-19476674D02*
X8346253Y-19486198D01*
X8346253Y-19486198D02*
X8355777Y-19505246D01*
X8355777Y-19505246D02*
X8355777Y-19562389D01*
X8355777Y-19562389D02*
X8346253Y-19581436D01*
X8346253Y-19581436D02*
X8336730Y-19590960D01*
X8336730Y-19590960D02*
X8317682Y-19600484D01*
X8317682Y-19600484D02*
X8289110Y-19600484D01*
X8470063Y-19600484D02*
X8451015Y-19590960D01*
X8451015Y-19590960D02*
X8441492Y-19571912D01*
X8441492Y-19571912D02*
X8441492Y-19400484D01*
X8622444Y-19590960D02*
X8603396Y-19600484D01*
X8603396Y-19600484D02*
X8565301Y-19600484D01*
X8565301Y-19600484D02*
X8546253Y-19590960D01*
X8546253Y-19590960D02*
X8536730Y-19571912D01*
X8536730Y-19571912D02*
X8536730Y-19495722D01*
X8536730Y-19495722D02*
X8546253Y-19476674D01*
X8546253Y-19476674D02*
X8565301Y-19467150D01*
X8565301Y-19467150D02*
X8603396Y-19467150D01*
X8603396Y-19467150D02*
X8622444Y-19476674D01*
X8622444Y-19476674D02*
X8631968Y-19495722D01*
X8631968Y-19495722D02*
X8631968Y-19514770D01*
X8631968Y-19514770D02*
X8536730Y-19533817D01*
X8708158Y-19590960D02*
X8727206Y-19600484D01*
X8727206Y-19600484D02*
X8765301Y-19600484D01*
X8765301Y-19600484D02*
X8784349Y-19590960D01*
X8784349Y-19590960D02*
X8793873Y-19571912D01*
X8793873Y-19571912D02*
X8793873Y-19562389D01*
X8793873Y-19562389D02*
X8784349Y-19543341D01*
X8784349Y-19543341D02*
X8765301Y-19533817D01*
X8765301Y-19533817D02*
X8736730Y-19533817D01*
X8736730Y-19533817D02*
X8717682Y-19524293D01*
X8717682Y-19524293D02*
X8708158Y-19505246D01*
X8708158Y-19505246D02*
X8708158Y-19495722D01*
X8708158Y-19495722D02*
X8717682Y-19476674D01*
X8717682Y-19476674D02*
X8736730Y-19467150D01*
X8736730Y-19467150D02*
X8765301Y-19467150D01*
X8765301Y-19467150D02*
X8784349Y-19476674D01*
X8860539Y-19676674D02*
X8870063Y-19667150D01*
X8870063Y-19667150D02*
X8889111Y-19638579D01*
X8889111Y-19638579D02*
X8898634Y-19619531D01*
X8898634Y-19619531D02*
X8908158Y-19590960D01*
X8908158Y-19590960D02*
X8917682Y-19543341D01*
X8917682Y-19543341D02*
X8917682Y-19505246D01*
X8917682Y-19505246D02*
X8908158Y-19457627D01*
X8908158Y-19457627D02*
X8898634Y-19429055D01*
X8898634Y-19429055D02*
X8889111Y-19410008D01*
X8889111Y-19410008D02*
X8870063Y-19381436D01*
X8870063Y-19381436D02*
X8860539Y-19371912D01*
M02*
