G04 #@! TF.GenerationSoftware,KiCad,Pcbnew,7.0.6*
G04 #@! TF.CreationDate,2023-08-25T14:35:58+01:00*
G04 #@! TF.ProjectId,gdp_flexible,6764705f-666c-4657-9869-626c652e6b69,1.0*
G04 #@! TF.SameCoordinates,Original*
G04 #@! TF.FileFunction,Paste,Top*
G04 #@! TF.FilePolarity,Positive*
%FSLAX46Y46*%
G04 Gerber Fmt 4.6, Leading zero omitted, Abs format (unit mm)*
G04 Created by KiCad (PCBNEW 7.0.6) date 2023-08-25 14:35:58*
%MOMM*%
%LPD*%
G01*
G04 APERTURE LIST*
G04 Aperture macros list*
%AMRoundRect*
0 Rectangle with rounded corners*
0 $1 Rounding radius*
0 $2 $3 $4 $5 $6 $7 $8 $9 X,Y pos of 4 corners*
0 Add a 4 corners polygon primitive as box body*
4,1,4,$2,$3,$4,$5,$6,$7,$8,$9,$2,$3,0*
0 Add four circle primitives for the rounded corners*
1,1,$1+$1,$2,$3*
1,1,$1+$1,$4,$5*
1,1,$1+$1,$6,$7*
1,1,$1+$1,$8,$9*
0 Add four rect primitives between the rounded corners*
20,1,$1+$1,$2,$3,$4,$5,0*
20,1,$1+$1,$4,$5,$6,$7,0*
20,1,$1+$1,$6,$7,$8,$9,0*
20,1,$1+$1,$8,$9,$2,$3,0*%
G04 Aperture macros list end*
%ADD10R,1.000000X0.675000*%
%ADD11RoundRect,0.225000X0.225000X0.250000X-0.225000X0.250000X-0.225000X-0.250000X0.225000X-0.250000X0*%
%ADD12R,0.900000X1.000000*%
%ADD13RoundRect,0.200000X-0.200000X-0.275000X0.200000X-0.275000X0.200000X0.275000X-0.200000X0.275000X0*%
%ADD14RoundRect,0.225000X-0.250000X0.225000X-0.250000X-0.225000X0.250000X-0.225000X0.250000X0.225000X0*%
%ADD15R,1.000000X0.950000*%
%ADD16R,0.600000X1.300000*%
%ADD17RoundRect,0.225000X0.250000X-0.225000X0.250000X0.225000X-0.250000X0.225000X-0.250000X-0.225000X0*%
%ADD18R,0.350000X0.600000*%
%ADD19R,1.700000X1.100000*%
%ADD20R,1.450000X1.200000*%
%ADD21RoundRect,0.450000X-1.926875X0.450000X-1.926875X-0.450000X1.926875X-0.450000X1.926875X0.450000X0*%
%ADD22R,0.700000X0.420000*%
%ADD23R,1.100000X1.700000*%
%ADD24R,0.600000X0.350000*%
%ADD25RoundRect,0.200000X0.275000X-0.200000X0.275000X0.200000X-0.275000X0.200000X-0.275000X-0.200000X0*%
%ADD26R,1.000000X2.510000*%
%ADD27R,2.000000X4.000000*%
%ADD28R,1.000000X1.250000*%
%ADD29RoundRect,0.125000X-0.375000X-0.125000X0.375000X-0.125000X0.375000X0.125000X-0.375000X0.125000X0*%
%ADD30R,0.482600X1.117600*%
%ADD31RoundRect,0.225000X-0.225000X-0.250000X0.225000X-0.250000X0.225000X0.250000X-0.225000X0.250000X0*%
%ADD32RoundRect,0.200000X-0.275000X0.200000X-0.275000X-0.200000X0.275000X-0.200000X0.275000X0.200000X0*%
%ADD33R,1.270000X2.200000*%
%ADD34R,0.850000X0.750000*%
%ADD35RoundRect,0.200000X0.200000X0.275000X-0.200000X0.275000X-0.200000X-0.275000X0.200000X-0.275000X0*%
%ADD36R,0.300000X0.850000*%
%ADD37R,0.850000X0.300000*%
%ADD38R,5.700000X5.700000*%
%ADD39RoundRect,0.250000X-0.250000X-0.250000X0.250000X-0.250000X0.250000X0.250000X-0.250000X0.250000X0*%
%ADD40R,0.600000X1.000000*%
%ADD41R,1.117600X0.482600*%
G04 APERTURE END LIST*
D10*
X124242220Y-90203218D03*
X124242220Y-88879218D03*
D11*
X132917220Y-84541218D03*
X131367220Y-84541218D03*
D12*
X130492220Y-110841218D03*
X126392220Y-110841218D03*
X126392220Y-112441218D03*
X130492220Y-112441218D03*
D13*
X128917220Y-114141218D03*
X130567220Y-114141218D03*
D14*
X51342220Y-34216218D03*
X51342220Y-32666218D03*
D15*
X128608841Y-109104160D03*
X128608841Y-107604160D03*
D14*
X128042220Y-82566218D03*
X128042220Y-84116218D03*
D16*
X111892220Y-89091218D03*
X109992220Y-89091218D03*
X110942220Y-91191218D03*
D17*
X114542220Y-102516218D03*
X114542220Y-100966218D03*
D18*
X124692220Y-84391218D03*
X125342220Y-84391218D03*
X125992220Y-84391218D03*
X125992220Y-82291218D03*
X125342220Y-82291218D03*
X124692220Y-82291218D03*
D19*
X125342220Y-83341218D03*
D17*
X166500000Y-175575000D03*
X166500000Y-174025000D03*
D20*
X126584672Y-88141218D03*
X126584672Y-89941218D03*
D21*
X98500000Y-111995921D03*
D22*
X127267220Y-114141218D03*
X125817220Y-114141218D03*
D23*
X54542220Y-33541218D03*
D24*
X53492220Y-34191218D03*
X53492220Y-33541218D03*
X53492220Y-32891218D03*
X55592220Y-32891218D03*
X55592220Y-33541218D03*
X55592220Y-34191218D03*
D17*
X165942220Y-34216218D03*
X165942220Y-32666218D03*
D25*
X118242220Y-86566218D03*
X118242220Y-84916218D03*
D26*
X105572220Y-94801218D03*
X108112220Y-98081218D03*
D17*
X126542220Y-109116218D03*
X126542220Y-107566218D03*
D27*
X107742220Y-104841218D03*
X107742220Y-111941218D03*
D28*
X114592220Y-107941218D03*
X116092220Y-107941218D03*
D29*
X133417155Y-98738000D03*
D13*
X121417220Y-86541218D03*
X123067220Y-86541218D03*
D30*
X112692219Y-85435018D03*
X114592221Y-85435018D03*
X113642220Y-83047418D03*
D14*
X117342220Y-95566218D03*
X117342220Y-97116218D03*
D31*
X125667220Y-91941218D03*
X127217220Y-91941218D03*
D32*
X114842220Y-96716218D03*
X114842220Y-98366218D03*
D33*
X118602220Y-113441218D03*
X118602220Y-107641218D03*
X121142220Y-113441218D03*
X121142220Y-107641218D03*
X123682220Y-113441218D03*
X123682220Y-107641218D03*
D21*
X98500000Y-104000000D03*
D16*
X114292220Y-91291218D03*
X116192220Y-91291218D03*
X115242220Y-89191218D03*
D34*
X129467220Y-87966218D03*
X130817220Y-87966218D03*
X130817220Y-86916218D03*
X129467220Y-86916218D03*
D14*
X130342220Y-107566218D03*
X130342220Y-109116218D03*
D17*
X121842220Y-92016218D03*
X121842220Y-90466218D03*
X119442220Y-92016218D03*
X119442220Y-90466218D03*
D11*
X116217220Y-105341218D03*
X114667220Y-105341218D03*
D12*
X108042220Y-86541218D03*
X109642220Y-86541218D03*
D21*
X98500000Y-107995921D03*
D17*
X116442220Y-102516218D03*
X116442220Y-100966218D03*
D35*
X113367220Y-94741218D03*
X111717220Y-94741218D03*
D36*
X120554580Y-101576050D03*
X121054580Y-101576050D03*
X121554580Y-101576050D03*
X122054580Y-101576050D03*
X122554580Y-101576050D03*
X123054580Y-101576050D03*
X123554580Y-101576050D03*
X124054580Y-101576050D03*
X124554580Y-101576050D03*
X125054580Y-101576050D03*
X125554580Y-101576050D03*
X126054580Y-101576050D03*
D37*
X126754580Y-100876050D03*
X126754580Y-100376050D03*
X126754580Y-99876050D03*
X126754580Y-99376050D03*
X126754580Y-98876050D03*
X126754580Y-98376050D03*
X126754580Y-97876050D03*
X126754580Y-97376050D03*
X126754580Y-96876050D03*
X126754580Y-96376050D03*
X126754580Y-95876050D03*
X126754580Y-95376050D03*
D36*
X126054580Y-94676050D03*
X125554580Y-94676050D03*
X125054580Y-94676050D03*
X124554580Y-94676050D03*
X124054580Y-94676050D03*
X123554580Y-94676050D03*
X123054580Y-94676050D03*
X122554580Y-94676050D03*
X122054580Y-94676050D03*
X121554580Y-94676050D03*
X121054580Y-94676050D03*
X120554580Y-94676050D03*
D37*
X119854580Y-95376050D03*
X119854580Y-95876050D03*
X119854580Y-96376050D03*
X119854580Y-96876050D03*
X119854580Y-97376050D03*
X119854580Y-97876050D03*
X119854580Y-98376050D03*
X119854580Y-98876050D03*
X119854580Y-99376050D03*
X119854580Y-99876050D03*
X119854580Y-100376050D03*
X119854580Y-100876050D03*
D38*
X123304580Y-98126050D03*
D25*
X110742220Y-98566218D03*
X110742220Y-96916218D03*
D39*
X133384555Y-97436700D03*
D24*
X161350000Y-174150000D03*
X161350000Y-174800000D03*
X161350000Y-175450000D03*
X163450000Y-175450000D03*
X163450000Y-174800000D03*
X163450000Y-174150000D03*
D23*
X162400000Y-174800000D03*
D40*
X107887220Y-84241218D03*
X109797220Y-84241218D03*
X108842220Y-81841218D03*
D13*
X114117220Y-112541218D03*
X115767220Y-112541218D03*
D11*
X115817220Y-110241218D03*
X114267220Y-110241218D03*
D31*
X126967220Y-105741218D03*
X128517220Y-105741218D03*
D24*
X161492220Y-32791218D03*
X161492220Y-33441218D03*
X161492220Y-34091218D03*
X163592220Y-34091218D03*
X163592220Y-33441218D03*
X163592220Y-32791218D03*
D23*
X162542220Y-33441218D03*
D41*
X108036020Y-91391219D03*
X108036020Y-89491217D03*
X105648420Y-90441218D03*
M02*
