G04 #@! TF.GenerationSoftware,KiCad,Pcbnew,7.0.6*
G04 #@! TF.CreationDate,2023-08-25T14:35:58+01:00*
G04 #@! TF.ProjectId,gdp_flexible,6764705f-666c-4657-9869-626c652e6b69,1.0*
G04 #@! TF.SameCoordinates,Original*
G04 #@! TF.FileFunction,Legend,Top*
G04 #@! TF.FilePolarity,Positive*
%FSLAX46Y46*%
G04 Gerber Fmt 4.6, Leading zero omitted, Abs format (unit mm)*
G04 Created by KiCad (PCBNEW 7.0.6) date 2023-08-25 14:35:58*
%MOMM*%
%LPD*%
G01*
G04 APERTURE LIST*
G04 Aperture macros list*
%AMRoundRect*
0 Rectangle with rounded corners*
0 $1 Rounding radius*
0 $2 $3 $4 $5 $6 $7 $8 $9 X,Y pos of 4 corners*
0 Add a 4 corners polygon primitive as box body*
4,1,4,$2,$3,$4,$5,$6,$7,$8,$9,$2,$3,0*
0 Add four circle primitives for the rounded corners*
1,1,$1+$1,$2,$3*
1,1,$1+$1,$4,$5*
1,1,$1+$1,$6,$7*
1,1,$1+$1,$8,$9*
0 Add four rect primitives between the rounded corners*
20,1,$1+$1,$2,$3,$4,$5,0*
20,1,$1+$1,$4,$5,$6,$7,0*
20,1,$1+$1,$6,$7,$8,$9,0*
20,1,$1+$1,$8,$9,$2,$3,0*%
G04 Aperture macros list end*
%ADD10C,0.150000*%
%ADD11C,0.200000*%
%ADD12C,0.120000*%
%ADD13C,0.254000*%
%ADD14C,0.127000*%
%ADD15C,0.250000*%
%ADD16C,0.050000*%
%ADD17C,0.100000*%
%ADD18C,0.152400*%
%ADD19C,0.300000*%
%ADD20R,1.000000X0.675000*%
%ADD21RoundRect,0.225000X0.225000X0.250000X-0.225000X0.250000X-0.225000X-0.250000X0.225000X-0.250000X0*%
%ADD22R,0.900000X1.000000*%
%ADD23RoundRect,0.200000X-0.200000X-0.275000X0.200000X-0.275000X0.200000X0.275000X-0.200000X0.275000X0*%
%ADD24RoundRect,0.225000X-0.250000X0.225000X-0.250000X-0.225000X0.250000X-0.225000X0.250000X0.225000X0*%
%ADD25R,1.000000X0.950000*%
%ADD26R,0.600000X1.300000*%
%ADD27RoundRect,0.101600X0.460450X0.485100X-0.460450X0.485100X-0.460450X-0.485100X0.460450X-0.485100X0*%
%ADD28RoundRect,0.101600X-0.460450X-0.485100X0.460450X-0.485100X0.460450X0.485100X-0.460450X0.485100X0*%
%ADD29RoundRect,0.225000X0.250000X-0.225000X0.250000X0.225000X-0.250000X0.225000X-0.250000X-0.225000X0*%
%ADD30R,0.350000X0.600000*%
%ADD31R,1.700000X1.100000*%
%ADD32R,1.450000X1.200000*%
%ADD33RoundRect,0.101600X-0.485100X0.460450X-0.485100X-0.460450X0.485100X-0.460450X0.485100X0.460450X0*%
%ADD34RoundRect,0.450000X-1.926875X0.450000X-1.926875X-0.450000X1.926875X-0.450000X1.926875X0.450000X0*%
%ADD35R,0.700000X0.420000*%
%ADD36R,1.100000X1.700000*%
%ADD37R,0.600000X0.350000*%
%ADD38RoundRect,0.200000X0.275000X-0.200000X0.275000X0.200000X-0.275000X0.200000X-0.275000X-0.200000X0*%
%ADD39R,1.000000X2.510000*%
%ADD40R,2.000000X4.000000*%
%ADD41R,1.000000X1.250000*%
%ADD42RoundRect,0.101600X0.450000X0.485100X-0.450000X0.485100X-0.450000X-0.485100X0.450000X-0.485100X0*%
%ADD43RoundRect,0.101600X0.466300X0.485100X-0.466300X0.485100X-0.466300X-0.485100X0.466300X-0.485100X0*%
%ADD44RoundRect,0.125000X-0.375000X-0.125000X0.375000X-0.125000X0.375000X0.125000X-0.375000X0.125000X0*%
%ADD45RoundRect,0.101600X0.485100X-0.460450X0.485100X0.460450X-0.485100X0.460450X-0.485100X-0.460450X0*%
%ADD46R,0.482600X1.117600*%
%ADD47RoundRect,0.225000X-0.225000X-0.250000X0.225000X-0.250000X0.225000X0.250000X-0.225000X0.250000X0*%
%ADD48RoundRect,0.200000X-0.275000X0.200000X-0.275000X-0.200000X0.275000X-0.200000X0.275000X0.200000X0*%
%ADD49R,1.270000X2.200000*%
%ADD50R,0.850000X0.750000*%
%ADD51RoundRect,0.200000X0.200000X0.275000X-0.200000X0.275000X-0.200000X-0.275000X0.200000X-0.275000X0*%
%ADD52R,0.300000X0.850000*%
%ADD53R,0.850000X0.300000*%
%ADD54R,5.700000X5.700000*%
%ADD55RoundRect,0.250000X-0.250000X-0.250000X0.250000X-0.250000X0.250000X0.250000X-0.250000X0.250000X0*%
%ADD56R,0.600000X1.000000*%
%ADD57R,1.117600X0.482600*%
G04 APERTURE END LIST*
D10*
X105076191Y-93254819D02*
X105076191Y-92254819D01*
X105552381Y-93254819D02*
X105552381Y-92254819D01*
X105552381Y-92254819D02*
X106123809Y-93254819D01*
X106123809Y-93254819D02*
X106123809Y-92254819D01*
X172159673Y-103570716D02*
X172207292Y-103427859D01*
X172207292Y-103427859D02*
X172254911Y-103380240D01*
X172254911Y-103380240D02*
X172350149Y-103332621D01*
X172350149Y-103332621D02*
X172493006Y-103332621D01*
X172493006Y-103332621D02*
X172588244Y-103380240D01*
X172588244Y-103380240D02*
X172635864Y-103427859D01*
X172635864Y-103427859D02*
X172683483Y-103523097D01*
X172683483Y-103523097D02*
X172683483Y-103904049D01*
X172683483Y-103904049D02*
X171683483Y-103904049D01*
X171683483Y-103904049D02*
X171683483Y-103570716D01*
X171683483Y-103570716D02*
X171731102Y-103475478D01*
X171731102Y-103475478D02*
X171778721Y-103427859D01*
X171778721Y-103427859D02*
X171873959Y-103380240D01*
X171873959Y-103380240D02*
X171969197Y-103380240D01*
X171969197Y-103380240D02*
X172064435Y-103427859D01*
X172064435Y-103427859D02*
X172112054Y-103475478D01*
X172112054Y-103475478D02*
X172159673Y-103570716D01*
X172159673Y-103570716D02*
X172159673Y-103904049D01*
X172683483Y-102427859D02*
X172683483Y-102904049D01*
X172683483Y-102904049D02*
X171683483Y-102904049D01*
X172159673Y-102094525D02*
X172159673Y-101761192D01*
X172683483Y-101618335D02*
X172683483Y-102094525D01*
X172683483Y-102094525D02*
X171683483Y-102094525D01*
X171683483Y-102094525D02*
X171683483Y-101618335D01*
X172397768Y-100475477D02*
X172397768Y-99999287D01*
X172683483Y-100570715D02*
X171683483Y-100237382D01*
X171683483Y-100237382D02*
X172683483Y-99904049D01*
X172683483Y-99570715D02*
X171683483Y-99570715D01*
X171683483Y-99570715D02*
X172683483Y-98999287D01*
X172683483Y-98999287D02*
X171683483Y-98999287D01*
X171683483Y-98665953D02*
X171683483Y-98094525D01*
X172683483Y-98380239D02*
X171683483Y-98380239D01*
X172159673Y-97761191D02*
X172159673Y-97427858D01*
X172683483Y-97285001D02*
X172683483Y-97761191D01*
X172683483Y-97761191D02*
X171683483Y-97761191D01*
X171683483Y-97761191D02*
X171683483Y-97285001D01*
X172683483Y-96856429D02*
X171683483Y-96856429D01*
X171683483Y-96856429D02*
X172683483Y-96285001D01*
X172683483Y-96285001D02*
X171683483Y-96285001D01*
X172683483Y-95808810D02*
X171683483Y-95808810D01*
X171683483Y-95808810D02*
X172683483Y-95237382D01*
X172683483Y-95237382D02*
X171683483Y-95237382D01*
X172397768Y-94808810D02*
X172397768Y-94332620D01*
X172683483Y-94904048D02*
X171683483Y-94570715D01*
X171683483Y-94570715D02*
X172683483Y-94237382D01*
X123769104Y-106138094D02*
X123769104Y-105661904D01*
X124054819Y-106233332D02*
X123054819Y-105899999D01*
X123054819Y-105899999D02*
X124054819Y-105566666D01*
X124054819Y-105233332D02*
X123054819Y-105233332D01*
X123054819Y-105233332D02*
X123054819Y-104995237D01*
X123054819Y-104995237D02*
X123102438Y-104852380D01*
X123102438Y-104852380D02*
X123197676Y-104757142D01*
X123197676Y-104757142D02*
X123292914Y-104709523D01*
X123292914Y-104709523D02*
X123483390Y-104661904D01*
X123483390Y-104661904D02*
X123626247Y-104661904D01*
X123626247Y-104661904D02*
X123816723Y-104709523D01*
X123816723Y-104709523D02*
X123911961Y-104757142D01*
X123911961Y-104757142D02*
X124007200Y-104852380D01*
X124007200Y-104852380D02*
X124054819Y-104995237D01*
X124054819Y-104995237D02*
X124054819Y-105233332D01*
X123959580Y-103661904D02*
X124007200Y-103709523D01*
X124007200Y-103709523D02*
X124054819Y-103852380D01*
X124054819Y-103852380D02*
X124054819Y-103947618D01*
X124054819Y-103947618D02*
X124007200Y-104090475D01*
X124007200Y-104090475D02*
X123911961Y-104185713D01*
X123911961Y-104185713D02*
X123816723Y-104233332D01*
X123816723Y-104233332D02*
X123626247Y-104280951D01*
X123626247Y-104280951D02*
X123483390Y-104280951D01*
X123483390Y-104280951D02*
X123292914Y-104233332D01*
X123292914Y-104233332D02*
X123197676Y-104185713D01*
X123197676Y-104185713D02*
X123102438Y-104090475D01*
X123102438Y-104090475D02*
X123054819Y-103947618D01*
X123054819Y-103947618D02*
X123054819Y-103852380D01*
X123054819Y-103852380D02*
X123102438Y-103709523D01*
X123102438Y-103709523D02*
X123150057Y-103661904D01*
X109319048Y-103473866D02*
X110080953Y-103473866D01*
X109700000Y-103854819D02*
X109700000Y-103092914D01*
X107338095Y-100002438D02*
X107242857Y-99954819D01*
X107242857Y-99954819D02*
X107100000Y-99954819D01*
X107100000Y-99954819D02*
X106957143Y-100002438D01*
X106957143Y-100002438D02*
X106861905Y-100097676D01*
X106861905Y-100097676D02*
X106814286Y-100192914D01*
X106814286Y-100192914D02*
X106766667Y-100383390D01*
X106766667Y-100383390D02*
X106766667Y-100526247D01*
X106766667Y-100526247D02*
X106814286Y-100716723D01*
X106814286Y-100716723D02*
X106861905Y-100811961D01*
X106861905Y-100811961D02*
X106957143Y-100907200D01*
X106957143Y-100907200D02*
X107100000Y-100954819D01*
X107100000Y-100954819D02*
X107195238Y-100954819D01*
X107195238Y-100954819D02*
X107338095Y-100907200D01*
X107338095Y-100907200D02*
X107385714Y-100859580D01*
X107385714Y-100859580D02*
X107385714Y-100526247D01*
X107385714Y-100526247D02*
X107195238Y-100526247D01*
X107814286Y-100954819D02*
X107814286Y-99954819D01*
X107814286Y-99954819D02*
X108385714Y-100954819D01*
X108385714Y-100954819D02*
X108385714Y-99954819D01*
X108861905Y-100954819D02*
X108861905Y-99954819D01*
X108861905Y-99954819D02*
X109100000Y-99954819D01*
X109100000Y-99954819D02*
X109242857Y-100002438D01*
X109242857Y-100002438D02*
X109338095Y-100097676D01*
X109338095Y-100097676D02*
X109385714Y-100192914D01*
X109385714Y-100192914D02*
X109433333Y-100383390D01*
X109433333Y-100383390D02*
X109433333Y-100526247D01*
X109433333Y-100526247D02*
X109385714Y-100716723D01*
X109385714Y-100716723D02*
X109338095Y-100811961D01*
X109338095Y-100811961D02*
X109242857Y-100907200D01*
X109242857Y-100907200D02*
X109100000Y-100954819D01*
X109100000Y-100954819D02*
X108861905Y-100954819D01*
X100361905Y-106469104D02*
X100838095Y-106469104D01*
X100266667Y-106754819D02*
X100600000Y-105754819D01*
X100600000Y-105754819D02*
X100933333Y-106754819D01*
X101266667Y-106754819D02*
X101266667Y-105754819D01*
X101266667Y-105754819D02*
X101504762Y-105754819D01*
X101504762Y-105754819D02*
X101647619Y-105802438D01*
X101647619Y-105802438D02*
X101742857Y-105897676D01*
X101742857Y-105897676D02*
X101790476Y-105992914D01*
X101790476Y-105992914D02*
X101838095Y-106183390D01*
X101838095Y-106183390D02*
X101838095Y-106326247D01*
X101838095Y-106326247D02*
X101790476Y-106516723D01*
X101790476Y-106516723D02*
X101742857Y-106611961D01*
X101742857Y-106611961D02*
X101647619Y-106707200D01*
X101647619Y-106707200D02*
X101504762Y-106754819D01*
X101504762Y-106754819D02*
X101266667Y-106754819D01*
X102838095Y-106659580D02*
X102790476Y-106707200D01*
X102790476Y-106707200D02*
X102647619Y-106754819D01*
X102647619Y-106754819D02*
X102552381Y-106754819D01*
X102552381Y-106754819D02*
X102409524Y-106707200D01*
X102409524Y-106707200D02*
X102314286Y-106611961D01*
X102314286Y-106611961D02*
X102266667Y-106516723D01*
X102266667Y-106516723D02*
X102219048Y-106326247D01*
X102219048Y-106326247D02*
X102219048Y-106183390D01*
X102219048Y-106183390D02*
X102266667Y-105992914D01*
X102266667Y-105992914D02*
X102314286Y-105897676D01*
X102314286Y-105897676D02*
X102409524Y-105802438D01*
X102409524Y-105802438D02*
X102552381Y-105754819D01*
X102552381Y-105754819D02*
X102647619Y-105754819D01*
X102647619Y-105754819D02*
X102790476Y-105802438D01*
X102790476Y-105802438D02*
X102838095Y-105850057D01*
X50580952Y-42507200D02*
X50723809Y-42554819D01*
X50723809Y-42554819D02*
X50961904Y-42554819D01*
X50961904Y-42554819D02*
X51057142Y-42507200D01*
X51057142Y-42507200D02*
X51104761Y-42459580D01*
X51104761Y-42459580D02*
X51152380Y-42364342D01*
X51152380Y-42364342D02*
X51152380Y-42269104D01*
X51152380Y-42269104D02*
X51104761Y-42173866D01*
X51104761Y-42173866D02*
X51057142Y-42126247D01*
X51057142Y-42126247D02*
X50961904Y-42078628D01*
X50961904Y-42078628D02*
X50771428Y-42031009D01*
X50771428Y-42031009D02*
X50676190Y-41983390D01*
X50676190Y-41983390D02*
X50628571Y-41935771D01*
X50628571Y-41935771D02*
X50580952Y-41840533D01*
X50580952Y-41840533D02*
X50580952Y-41745295D01*
X50580952Y-41745295D02*
X50628571Y-41650057D01*
X50628571Y-41650057D02*
X50676190Y-41602438D01*
X50676190Y-41602438D02*
X50771428Y-41554819D01*
X50771428Y-41554819D02*
X51009523Y-41554819D01*
X51009523Y-41554819D02*
X51152380Y-41602438D01*
X51580952Y-42031009D02*
X51914285Y-42031009D01*
X52057142Y-42554819D02*
X51580952Y-42554819D01*
X51580952Y-42554819D02*
X51580952Y-41554819D01*
X51580952Y-41554819D02*
X52057142Y-41554819D01*
X52485714Y-42554819D02*
X52485714Y-41554819D01*
X52485714Y-41554819D02*
X53057142Y-42554819D01*
X53057142Y-42554819D02*
X53057142Y-41554819D01*
X53485714Y-42507200D02*
X53628571Y-42554819D01*
X53628571Y-42554819D02*
X53866666Y-42554819D01*
X53866666Y-42554819D02*
X53961904Y-42507200D01*
X53961904Y-42507200D02*
X54009523Y-42459580D01*
X54009523Y-42459580D02*
X54057142Y-42364342D01*
X54057142Y-42364342D02*
X54057142Y-42269104D01*
X54057142Y-42269104D02*
X54009523Y-42173866D01*
X54009523Y-42173866D02*
X53961904Y-42126247D01*
X53961904Y-42126247D02*
X53866666Y-42078628D01*
X53866666Y-42078628D02*
X53676190Y-42031009D01*
X53676190Y-42031009D02*
X53580952Y-41983390D01*
X53580952Y-41983390D02*
X53533333Y-41935771D01*
X53533333Y-41935771D02*
X53485714Y-41840533D01*
X53485714Y-41840533D02*
X53485714Y-41745295D01*
X53485714Y-41745295D02*
X53533333Y-41650057D01*
X53533333Y-41650057D02*
X53580952Y-41602438D01*
X53580952Y-41602438D02*
X53676190Y-41554819D01*
X53676190Y-41554819D02*
X53914285Y-41554819D01*
X53914285Y-41554819D02*
X54057142Y-41602438D01*
X54676190Y-41554819D02*
X54866666Y-41554819D01*
X54866666Y-41554819D02*
X54961904Y-41602438D01*
X54961904Y-41602438D02*
X55057142Y-41697676D01*
X55057142Y-41697676D02*
X55104761Y-41888152D01*
X55104761Y-41888152D02*
X55104761Y-42221485D01*
X55104761Y-42221485D02*
X55057142Y-42411961D01*
X55057142Y-42411961D02*
X54961904Y-42507200D01*
X54961904Y-42507200D02*
X54866666Y-42554819D01*
X54866666Y-42554819D02*
X54676190Y-42554819D01*
X54676190Y-42554819D02*
X54580952Y-42507200D01*
X54580952Y-42507200D02*
X54485714Y-42411961D01*
X54485714Y-42411961D02*
X54438095Y-42221485D01*
X54438095Y-42221485D02*
X54438095Y-41888152D01*
X54438095Y-41888152D02*
X54485714Y-41697676D01*
X54485714Y-41697676D02*
X54580952Y-41602438D01*
X54580952Y-41602438D02*
X54676190Y-41554819D01*
X56104761Y-42554819D02*
X55771428Y-42078628D01*
X55533333Y-42554819D02*
X55533333Y-41554819D01*
X55533333Y-41554819D02*
X55914285Y-41554819D01*
X55914285Y-41554819D02*
X56009523Y-41602438D01*
X56009523Y-41602438D02*
X56057142Y-41650057D01*
X56057142Y-41650057D02*
X56104761Y-41745295D01*
X56104761Y-41745295D02*
X56104761Y-41888152D01*
X56104761Y-41888152D02*
X56057142Y-41983390D01*
X56057142Y-41983390D02*
X56009523Y-42031009D01*
X56009523Y-42031009D02*
X55914285Y-42078628D01*
X55914285Y-42078628D02*
X55533333Y-42078628D01*
X57200000Y-41554819D02*
X57819047Y-41554819D01*
X57819047Y-41554819D02*
X57485714Y-41935771D01*
X57485714Y-41935771D02*
X57628571Y-41935771D01*
X57628571Y-41935771D02*
X57723809Y-41983390D01*
X57723809Y-41983390D02*
X57771428Y-42031009D01*
X57771428Y-42031009D02*
X57819047Y-42126247D01*
X57819047Y-42126247D02*
X57819047Y-42364342D01*
X57819047Y-42364342D02*
X57771428Y-42459580D01*
X57771428Y-42459580D02*
X57723809Y-42507200D01*
X57723809Y-42507200D02*
X57628571Y-42554819D01*
X57628571Y-42554819D02*
X57342857Y-42554819D01*
X57342857Y-42554819D02*
X57247619Y-42507200D01*
X57247619Y-42507200D02*
X57200000Y-42459580D01*
X159180952Y-167407200D02*
X159323809Y-167454819D01*
X159323809Y-167454819D02*
X159561904Y-167454819D01*
X159561904Y-167454819D02*
X159657142Y-167407200D01*
X159657142Y-167407200D02*
X159704761Y-167359580D01*
X159704761Y-167359580D02*
X159752380Y-167264342D01*
X159752380Y-167264342D02*
X159752380Y-167169104D01*
X159752380Y-167169104D02*
X159704761Y-167073866D01*
X159704761Y-167073866D02*
X159657142Y-167026247D01*
X159657142Y-167026247D02*
X159561904Y-166978628D01*
X159561904Y-166978628D02*
X159371428Y-166931009D01*
X159371428Y-166931009D02*
X159276190Y-166883390D01*
X159276190Y-166883390D02*
X159228571Y-166835771D01*
X159228571Y-166835771D02*
X159180952Y-166740533D01*
X159180952Y-166740533D02*
X159180952Y-166645295D01*
X159180952Y-166645295D02*
X159228571Y-166550057D01*
X159228571Y-166550057D02*
X159276190Y-166502438D01*
X159276190Y-166502438D02*
X159371428Y-166454819D01*
X159371428Y-166454819D02*
X159609523Y-166454819D01*
X159609523Y-166454819D02*
X159752380Y-166502438D01*
X160180952Y-166931009D02*
X160514285Y-166931009D01*
X160657142Y-167454819D02*
X160180952Y-167454819D01*
X160180952Y-167454819D02*
X160180952Y-166454819D01*
X160180952Y-166454819D02*
X160657142Y-166454819D01*
X161085714Y-167454819D02*
X161085714Y-166454819D01*
X161085714Y-166454819D02*
X161657142Y-167454819D01*
X161657142Y-167454819D02*
X161657142Y-166454819D01*
X162085714Y-167407200D02*
X162228571Y-167454819D01*
X162228571Y-167454819D02*
X162466666Y-167454819D01*
X162466666Y-167454819D02*
X162561904Y-167407200D01*
X162561904Y-167407200D02*
X162609523Y-167359580D01*
X162609523Y-167359580D02*
X162657142Y-167264342D01*
X162657142Y-167264342D02*
X162657142Y-167169104D01*
X162657142Y-167169104D02*
X162609523Y-167073866D01*
X162609523Y-167073866D02*
X162561904Y-167026247D01*
X162561904Y-167026247D02*
X162466666Y-166978628D01*
X162466666Y-166978628D02*
X162276190Y-166931009D01*
X162276190Y-166931009D02*
X162180952Y-166883390D01*
X162180952Y-166883390D02*
X162133333Y-166835771D01*
X162133333Y-166835771D02*
X162085714Y-166740533D01*
X162085714Y-166740533D02*
X162085714Y-166645295D01*
X162085714Y-166645295D02*
X162133333Y-166550057D01*
X162133333Y-166550057D02*
X162180952Y-166502438D01*
X162180952Y-166502438D02*
X162276190Y-166454819D01*
X162276190Y-166454819D02*
X162514285Y-166454819D01*
X162514285Y-166454819D02*
X162657142Y-166502438D01*
X163276190Y-166454819D02*
X163466666Y-166454819D01*
X163466666Y-166454819D02*
X163561904Y-166502438D01*
X163561904Y-166502438D02*
X163657142Y-166597676D01*
X163657142Y-166597676D02*
X163704761Y-166788152D01*
X163704761Y-166788152D02*
X163704761Y-167121485D01*
X163704761Y-167121485D02*
X163657142Y-167311961D01*
X163657142Y-167311961D02*
X163561904Y-167407200D01*
X163561904Y-167407200D02*
X163466666Y-167454819D01*
X163466666Y-167454819D02*
X163276190Y-167454819D01*
X163276190Y-167454819D02*
X163180952Y-167407200D01*
X163180952Y-167407200D02*
X163085714Y-167311961D01*
X163085714Y-167311961D02*
X163038095Y-167121485D01*
X163038095Y-167121485D02*
X163038095Y-166788152D01*
X163038095Y-166788152D02*
X163085714Y-166597676D01*
X163085714Y-166597676D02*
X163180952Y-166502438D01*
X163180952Y-166502438D02*
X163276190Y-166454819D01*
X164704761Y-167454819D02*
X164371428Y-166978628D01*
X164133333Y-167454819D02*
X164133333Y-166454819D01*
X164133333Y-166454819D02*
X164514285Y-166454819D01*
X164514285Y-166454819D02*
X164609523Y-166502438D01*
X164609523Y-166502438D02*
X164657142Y-166550057D01*
X164657142Y-166550057D02*
X164704761Y-166645295D01*
X164704761Y-166645295D02*
X164704761Y-166788152D01*
X164704761Y-166788152D02*
X164657142Y-166883390D01*
X164657142Y-166883390D02*
X164609523Y-166931009D01*
X164609523Y-166931009D02*
X164514285Y-166978628D01*
X164514285Y-166978628D02*
X164133333Y-166978628D01*
X166323809Y-166788152D02*
X166323809Y-167454819D01*
X166085714Y-166407200D02*
X165847619Y-167121485D01*
X165847619Y-167121485D02*
X166466666Y-167121485D01*
X100276191Y-102854819D02*
X100276191Y-101854819D01*
X100752381Y-102854819D02*
X100752381Y-101854819D01*
X100752381Y-101854819D02*
X101323809Y-102854819D01*
X101323809Y-102854819D02*
X101323809Y-101854819D01*
X121780952Y-80407200D02*
X121923809Y-80454819D01*
X121923809Y-80454819D02*
X122161904Y-80454819D01*
X122161904Y-80454819D02*
X122257142Y-80407200D01*
X122257142Y-80407200D02*
X122304761Y-80359580D01*
X122304761Y-80359580D02*
X122352380Y-80264342D01*
X122352380Y-80264342D02*
X122352380Y-80169104D01*
X122352380Y-80169104D02*
X122304761Y-80073866D01*
X122304761Y-80073866D02*
X122257142Y-80026247D01*
X122257142Y-80026247D02*
X122161904Y-79978628D01*
X122161904Y-79978628D02*
X121971428Y-79931009D01*
X121971428Y-79931009D02*
X121876190Y-79883390D01*
X121876190Y-79883390D02*
X121828571Y-79835771D01*
X121828571Y-79835771D02*
X121780952Y-79740533D01*
X121780952Y-79740533D02*
X121780952Y-79645295D01*
X121780952Y-79645295D02*
X121828571Y-79550057D01*
X121828571Y-79550057D02*
X121876190Y-79502438D01*
X121876190Y-79502438D02*
X121971428Y-79454819D01*
X121971428Y-79454819D02*
X122209523Y-79454819D01*
X122209523Y-79454819D02*
X122352380Y-79502438D01*
X122780952Y-79931009D02*
X123114285Y-79931009D01*
X123257142Y-80454819D02*
X122780952Y-80454819D01*
X122780952Y-80454819D02*
X122780952Y-79454819D01*
X122780952Y-79454819D02*
X123257142Y-79454819D01*
X123685714Y-80454819D02*
X123685714Y-79454819D01*
X123685714Y-79454819D02*
X124257142Y-80454819D01*
X124257142Y-80454819D02*
X124257142Y-79454819D01*
X124685714Y-80407200D02*
X124828571Y-80454819D01*
X124828571Y-80454819D02*
X125066666Y-80454819D01*
X125066666Y-80454819D02*
X125161904Y-80407200D01*
X125161904Y-80407200D02*
X125209523Y-80359580D01*
X125209523Y-80359580D02*
X125257142Y-80264342D01*
X125257142Y-80264342D02*
X125257142Y-80169104D01*
X125257142Y-80169104D02*
X125209523Y-80073866D01*
X125209523Y-80073866D02*
X125161904Y-80026247D01*
X125161904Y-80026247D02*
X125066666Y-79978628D01*
X125066666Y-79978628D02*
X124876190Y-79931009D01*
X124876190Y-79931009D02*
X124780952Y-79883390D01*
X124780952Y-79883390D02*
X124733333Y-79835771D01*
X124733333Y-79835771D02*
X124685714Y-79740533D01*
X124685714Y-79740533D02*
X124685714Y-79645295D01*
X124685714Y-79645295D02*
X124733333Y-79550057D01*
X124733333Y-79550057D02*
X124780952Y-79502438D01*
X124780952Y-79502438D02*
X124876190Y-79454819D01*
X124876190Y-79454819D02*
X125114285Y-79454819D01*
X125114285Y-79454819D02*
X125257142Y-79502438D01*
X125876190Y-79454819D02*
X126066666Y-79454819D01*
X126066666Y-79454819D02*
X126161904Y-79502438D01*
X126161904Y-79502438D02*
X126257142Y-79597676D01*
X126257142Y-79597676D02*
X126304761Y-79788152D01*
X126304761Y-79788152D02*
X126304761Y-80121485D01*
X126304761Y-80121485D02*
X126257142Y-80311961D01*
X126257142Y-80311961D02*
X126161904Y-80407200D01*
X126161904Y-80407200D02*
X126066666Y-80454819D01*
X126066666Y-80454819D02*
X125876190Y-80454819D01*
X125876190Y-80454819D02*
X125780952Y-80407200D01*
X125780952Y-80407200D02*
X125685714Y-80311961D01*
X125685714Y-80311961D02*
X125638095Y-80121485D01*
X125638095Y-80121485D02*
X125638095Y-79788152D01*
X125638095Y-79788152D02*
X125685714Y-79597676D01*
X125685714Y-79597676D02*
X125780952Y-79502438D01*
X125780952Y-79502438D02*
X125876190Y-79454819D01*
X127304761Y-80454819D02*
X126971428Y-79978628D01*
X126733333Y-80454819D02*
X126733333Y-79454819D01*
X126733333Y-79454819D02*
X127114285Y-79454819D01*
X127114285Y-79454819D02*
X127209523Y-79502438D01*
X127209523Y-79502438D02*
X127257142Y-79550057D01*
X127257142Y-79550057D02*
X127304761Y-79645295D01*
X127304761Y-79645295D02*
X127304761Y-79788152D01*
X127304761Y-79788152D02*
X127257142Y-79883390D01*
X127257142Y-79883390D02*
X127209523Y-79931009D01*
X127209523Y-79931009D02*
X127114285Y-79978628D01*
X127114285Y-79978628D02*
X126733333Y-79978628D01*
X129019047Y-80454819D02*
X128447619Y-80454819D01*
X128733333Y-80454819D02*
X128733333Y-79454819D01*
X128733333Y-79454819D02*
X128638095Y-79597676D01*
X128638095Y-79597676D02*
X128542857Y-79692914D01*
X128542857Y-79692914D02*
X128447619Y-79740533D01*
X118054819Y-117138094D02*
X119054819Y-116804761D01*
X119054819Y-116804761D02*
X118054819Y-116471428D01*
X119054819Y-115709523D02*
X118054819Y-115709523D01*
X119007200Y-115709523D02*
X119054819Y-115804761D01*
X119054819Y-115804761D02*
X119054819Y-115995237D01*
X119054819Y-115995237D02*
X119007200Y-116090475D01*
X119007200Y-116090475D02*
X118959580Y-116138094D01*
X118959580Y-116138094D02*
X118864342Y-116185713D01*
X118864342Y-116185713D02*
X118578628Y-116185713D01*
X118578628Y-116185713D02*
X118483390Y-116138094D01*
X118483390Y-116138094D02*
X118435771Y-116090475D01*
X118435771Y-116090475D02*
X118388152Y-115995237D01*
X118388152Y-115995237D02*
X118388152Y-115804761D01*
X118388152Y-115804761D02*
X118435771Y-115709523D01*
X119054819Y-114804761D02*
X118054819Y-114804761D01*
X119007200Y-114804761D02*
X119054819Y-114899999D01*
X119054819Y-114899999D02*
X119054819Y-115090475D01*
X119054819Y-115090475D02*
X119007200Y-115185713D01*
X119007200Y-115185713D02*
X118959580Y-115233332D01*
X118959580Y-115233332D02*
X118864342Y-115280951D01*
X118864342Y-115280951D02*
X118578628Y-115280951D01*
X118578628Y-115280951D02*
X118483390Y-115233332D01*
X118483390Y-115233332D02*
X118435771Y-115185713D01*
X118435771Y-115185713D02*
X118388152Y-115090475D01*
X118388152Y-115090475D02*
X118388152Y-114899999D01*
X118388152Y-114899999D02*
X118435771Y-114804761D01*
X123302438Y-116961904D02*
X123254819Y-117057142D01*
X123254819Y-117057142D02*
X123254819Y-117199999D01*
X123254819Y-117199999D02*
X123302438Y-117342856D01*
X123302438Y-117342856D02*
X123397676Y-117438094D01*
X123397676Y-117438094D02*
X123492914Y-117485713D01*
X123492914Y-117485713D02*
X123683390Y-117533332D01*
X123683390Y-117533332D02*
X123826247Y-117533332D01*
X123826247Y-117533332D02*
X124016723Y-117485713D01*
X124016723Y-117485713D02*
X124111961Y-117438094D01*
X124111961Y-117438094D02*
X124207200Y-117342856D01*
X124207200Y-117342856D02*
X124254819Y-117199999D01*
X124254819Y-117199999D02*
X124254819Y-117104761D01*
X124254819Y-117104761D02*
X124207200Y-116961904D01*
X124207200Y-116961904D02*
X124159580Y-116914285D01*
X124159580Y-116914285D02*
X123826247Y-116914285D01*
X123826247Y-116914285D02*
X123826247Y-117104761D01*
X124254819Y-116485713D02*
X123254819Y-116485713D01*
X123254819Y-116485713D02*
X124254819Y-115914285D01*
X124254819Y-115914285D02*
X123254819Y-115914285D01*
X124254819Y-115438094D02*
X123254819Y-115438094D01*
X123254819Y-115438094D02*
X123254819Y-115199999D01*
X123254819Y-115199999D02*
X123302438Y-115057142D01*
X123302438Y-115057142D02*
X123397676Y-114961904D01*
X123397676Y-114961904D02*
X123492914Y-114914285D01*
X123492914Y-114914285D02*
X123683390Y-114866666D01*
X123683390Y-114866666D02*
X123826247Y-114866666D01*
X123826247Y-114866666D02*
X124016723Y-114914285D01*
X124016723Y-114914285D02*
X124111961Y-114961904D01*
X124111961Y-114961904D02*
X124207200Y-115057142D01*
X124207200Y-115057142D02*
X124254819Y-115199999D01*
X124254819Y-115199999D02*
X124254819Y-115438094D01*
X118531009Y-105919047D02*
X118578628Y-105776190D01*
X118578628Y-105776190D02*
X118626247Y-105728571D01*
X118626247Y-105728571D02*
X118721485Y-105680952D01*
X118721485Y-105680952D02*
X118864342Y-105680952D01*
X118864342Y-105680952D02*
X118959580Y-105728571D01*
X118959580Y-105728571D02*
X119007200Y-105776190D01*
X119007200Y-105776190D02*
X119054819Y-105871428D01*
X119054819Y-105871428D02*
X119054819Y-106252380D01*
X119054819Y-106252380D02*
X118054819Y-106252380D01*
X118054819Y-106252380D02*
X118054819Y-105919047D01*
X118054819Y-105919047D02*
X118102438Y-105823809D01*
X118102438Y-105823809D02*
X118150057Y-105776190D01*
X118150057Y-105776190D02*
X118245295Y-105728571D01*
X118245295Y-105728571D02*
X118340533Y-105728571D01*
X118340533Y-105728571D02*
X118435771Y-105776190D01*
X118435771Y-105776190D02*
X118483390Y-105823809D01*
X118483390Y-105823809D02*
X118531009Y-105919047D01*
X118531009Y-105919047D02*
X118531009Y-106252380D01*
X119054819Y-105109523D02*
X119007200Y-105204761D01*
X119007200Y-105204761D02*
X118959580Y-105252380D01*
X118959580Y-105252380D02*
X118864342Y-105299999D01*
X118864342Y-105299999D02*
X118578628Y-105299999D01*
X118578628Y-105299999D02*
X118483390Y-105252380D01*
X118483390Y-105252380D02*
X118435771Y-105204761D01*
X118435771Y-105204761D02*
X118388152Y-105109523D01*
X118388152Y-105109523D02*
X118388152Y-104966666D01*
X118388152Y-104966666D02*
X118435771Y-104871428D01*
X118435771Y-104871428D02*
X118483390Y-104823809D01*
X118483390Y-104823809D02*
X118578628Y-104776190D01*
X118578628Y-104776190D02*
X118864342Y-104776190D01*
X118864342Y-104776190D02*
X118959580Y-104823809D01*
X118959580Y-104823809D02*
X119007200Y-104871428D01*
X119007200Y-104871428D02*
X119054819Y-104966666D01*
X119054819Y-104966666D02*
X119054819Y-105109523D01*
X119054819Y-104204761D02*
X119007200Y-104299999D01*
X119007200Y-104299999D02*
X118959580Y-104347618D01*
X118959580Y-104347618D02*
X118864342Y-104395237D01*
X118864342Y-104395237D02*
X118578628Y-104395237D01*
X118578628Y-104395237D02*
X118483390Y-104347618D01*
X118483390Y-104347618D02*
X118435771Y-104299999D01*
X118435771Y-104299999D02*
X118388152Y-104204761D01*
X118388152Y-104204761D02*
X118388152Y-104061904D01*
X118388152Y-104061904D02*
X118435771Y-103966666D01*
X118435771Y-103966666D02*
X118483390Y-103919047D01*
X118483390Y-103919047D02*
X118578628Y-103871428D01*
X118578628Y-103871428D02*
X118864342Y-103871428D01*
X118864342Y-103871428D02*
X118959580Y-103919047D01*
X118959580Y-103919047D02*
X119007200Y-103966666D01*
X119007200Y-103966666D02*
X119054819Y-104061904D01*
X119054819Y-104061904D02*
X119054819Y-104204761D01*
X118388152Y-103585713D02*
X118388152Y-103204761D01*
X118054819Y-103442856D02*
X118911961Y-103442856D01*
X118911961Y-103442856D02*
X119007200Y-103395237D01*
X119007200Y-103395237D02*
X119054819Y-103299999D01*
X119054819Y-103299999D02*
X119054819Y-103204761D01*
X121554819Y-105695238D02*
X121078628Y-106028571D01*
X121554819Y-106266666D02*
X120554819Y-106266666D01*
X120554819Y-106266666D02*
X120554819Y-105885714D01*
X120554819Y-105885714D02*
X120602438Y-105790476D01*
X120602438Y-105790476D02*
X120650057Y-105742857D01*
X120650057Y-105742857D02*
X120745295Y-105695238D01*
X120745295Y-105695238D02*
X120888152Y-105695238D01*
X120888152Y-105695238D02*
X120983390Y-105742857D01*
X120983390Y-105742857D02*
X121031009Y-105790476D01*
X121031009Y-105790476D02*
X121078628Y-105885714D01*
X121078628Y-105885714D02*
X121078628Y-106266666D01*
X121554819Y-105361904D02*
X120888152Y-104838095D01*
X120888152Y-105361904D02*
X121554819Y-104838095D01*
X100638095Y-109802438D02*
X100542857Y-109754819D01*
X100542857Y-109754819D02*
X100400000Y-109754819D01*
X100400000Y-109754819D02*
X100257143Y-109802438D01*
X100257143Y-109802438D02*
X100161905Y-109897676D01*
X100161905Y-109897676D02*
X100114286Y-109992914D01*
X100114286Y-109992914D02*
X100066667Y-110183390D01*
X100066667Y-110183390D02*
X100066667Y-110326247D01*
X100066667Y-110326247D02*
X100114286Y-110516723D01*
X100114286Y-110516723D02*
X100161905Y-110611961D01*
X100161905Y-110611961D02*
X100257143Y-110707200D01*
X100257143Y-110707200D02*
X100400000Y-110754819D01*
X100400000Y-110754819D02*
X100495238Y-110754819D01*
X100495238Y-110754819D02*
X100638095Y-110707200D01*
X100638095Y-110707200D02*
X100685714Y-110659580D01*
X100685714Y-110659580D02*
X100685714Y-110326247D01*
X100685714Y-110326247D02*
X100495238Y-110326247D01*
X101114286Y-110754819D02*
X101114286Y-109754819D01*
X101114286Y-109754819D02*
X101685714Y-110754819D01*
X101685714Y-110754819D02*
X101685714Y-109754819D01*
X102161905Y-110754819D02*
X102161905Y-109754819D01*
X102161905Y-109754819D02*
X102400000Y-109754819D01*
X102400000Y-109754819D02*
X102542857Y-109802438D01*
X102542857Y-109802438D02*
X102638095Y-109897676D01*
X102638095Y-109897676D02*
X102685714Y-109992914D01*
X102685714Y-109992914D02*
X102733333Y-110183390D01*
X102733333Y-110183390D02*
X102733333Y-110326247D01*
X102733333Y-110326247D02*
X102685714Y-110516723D01*
X102685714Y-110516723D02*
X102638095Y-110611961D01*
X102638095Y-110611961D02*
X102542857Y-110707200D01*
X102542857Y-110707200D02*
X102400000Y-110754819D01*
X102400000Y-110754819D02*
X102161905Y-110754819D01*
X158980952Y-42307200D02*
X159123809Y-42354819D01*
X159123809Y-42354819D02*
X159361904Y-42354819D01*
X159361904Y-42354819D02*
X159457142Y-42307200D01*
X159457142Y-42307200D02*
X159504761Y-42259580D01*
X159504761Y-42259580D02*
X159552380Y-42164342D01*
X159552380Y-42164342D02*
X159552380Y-42069104D01*
X159552380Y-42069104D02*
X159504761Y-41973866D01*
X159504761Y-41973866D02*
X159457142Y-41926247D01*
X159457142Y-41926247D02*
X159361904Y-41878628D01*
X159361904Y-41878628D02*
X159171428Y-41831009D01*
X159171428Y-41831009D02*
X159076190Y-41783390D01*
X159076190Y-41783390D02*
X159028571Y-41735771D01*
X159028571Y-41735771D02*
X158980952Y-41640533D01*
X158980952Y-41640533D02*
X158980952Y-41545295D01*
X158980952Y-41545295D02*
X159028571Y-41450057D01*
X159028571Y-41450057D02*
X159076190Y-41402438D01*
X159076190Y-41402438D02*
X159171428Y-41354819D01*
X159171428Y-41354819D02*
X159409523Y-41354819D01*
X159409523Y-41354819D02*
X159552380Y-41402438D01*
X159980952Y-41831009D02*
X160314285Y-41831009D01*
X160457142Y-42354819D02*
X159980952Y-42354819D01*
X159980952Y-42354819D02*
X159980952Y-41354819D01*
X159980952Y-41354819D02*
X160457142Y-41354819D01*
X160885714Y-42354819D02*
X160885714Y-41354819D01*
X160885714Y-41354819D02*
X161457142Y-42354819D01*
X161457142Y-42354819D02*
X161457142Y-41354819D01*
X161885714Y-42307200D02*
X162028571Y-42354819D01*
X162028571Y-42354819D02*
X162266666Y-42354819D01*
X162266666Y-42354819D02*
X162361904Y-42307200D01*
X162361904Y-42307200D02*
X162409523Y-42259580D01*
X162409523Y-42259580D02*
X162457142Y-42164342D01*
X162457142Y-42164342D02*
X162457142Y-42069104D01*
X162457142Y-42069104D02*
X162409523Y-41973866D01*
X162409523Y-41973866D02*
X162361904Y-41926247D01*
X162361904Y-41926247D02*
X162266666Y-41878628D01*
X162266666Y-41878628D02*
X162076190Y-41831009D01*
X162076190Y-41831009D02*
X161980952Y-41783390D01*
X161980952Y-41783390D02*
X161933333Y-41735771D01*
X161933333Y-41735771D02*
X161885714Y-41640533D01*
X161885714Y-41640533D02*
X161885714Y-41545295D01*
X161885714Y-41545295D02*
X161933333Y-41450057D01*
X161933333Y-41450057D02*
X161980952Y-41402438D01*
X161980952Y-41402438D02*
X162076190Y-41354819D01*
X162076190Y-41354819D02*
X162314285Y-41354819D01*
X162314285Y-41354819D02*
X162457142Y-41402438D01*
X163076190Y-41354819D02*
X163266666Y-41354819D01*
X163266666Y-41354819D02*
X163361904Y-41402438D01*
X163361904Y-41402438D02*
X163457142Y-41497676D01*
X163457142Y-41497676D02*
X163504761Y-41688152D01*
X163504761Y-41688152D02*
X163504761Y-42021485D01*
X163504761Y-42021485D02*
X163457142Y-42211961D01*
X163457142Y-42211961D02*
X163361904Y-42307200D01*
X163361904Y-42307200D02*
X163266666Y-42354819D01*
X163266666Y-42354819D02*
X163076190Y-42354819D01*
X163076190Y-42354819D02*
X162980952Y-42307200D01*
X162980952Y-42307200D02*
X162885714Y-42211961D01*
X162885714Y-42211961D02*
X162838095Y-42021485D01*
X162838095Y-42021485D02*
X162838095Y-41688152D01*
X162838095Y-41688152D02*
X162885714Y-41497676D01*
X162885714Y-41497676D02*
X162980952Y-41402438D01*
X162980952Y-41402438D02*
X163076190Y-41354819D01*
X164504761Y-42354819D02*
X164171428Y-41878628D01*
X163933333Y-42354819D02*
X163933333Y-41354819D01*
X163933333Y-41354819D02*
X164314285Y-41354819D01*
X164314285Y-41354819D02*
X164409523Y-41402438D01*
X164409523Y-41402438D02*
X164457142Y-41450057D01*
X164457142Y-41450057D02*
X164504761Y-41545295D01*
X164504761Y-41545295D02*
X164504761Y-41688152D01*
X164504761Y-41688152D02*
X164457142Y-41783390D01*
X164457142Y-41783390D02*
X164409523Y-41831009D01*
X164409523Y-41831009D02*
X164314285Y-41878628D01*
X164314285Y-41878628D02*
X163933333Y-41878628D01*
X165647619Y-41450057D02*
X165695238Y-41402438D01*
X165695238Y-41402438D02*
X165790476Y-41354819D01*
X165790476Y-41354819D02*
X166028571Y-41354819D01*
X166028571Y-41354819D02*
X166123809Y-41402438D01*
X166123809Y-41402438D02*
X166171428Y-41450057D01*
X166171428Y-41450057D02*
X166219047Y-41545295D01*
X166219047Y-41545295D02*
X166219047Y-41640533D01*
X166219047Y-41640533D02*
X166171428Y-41783390D01*
X166171428Y-41783390D02*
X165600000Y-42354819D01*
X165600000Y-42354819D02*
X166219047Y-42354819D01*
X120554819Y-116190475D02*
X120554819Y-115619047D01*
X121554819Y-115904761D02*
X120554819Y-115904761D01*
X121554819Y-115380951D02*
X120888152Y-114857142D01*
X120888152Y-115380951D02*
X121554819Y-114857142D01*
X132575031Y-99340819D02*
X133241697Y-100340819D01*
X133241697Y-99340819D02*
X132575031Y-100340819D01*
X134146459Y-100340819D02*
X133575031Y-100340819D01*
X133860745Y-100340819D02*
X133860745Y-99340819D01*
X133860745Y-99340819D02*
X133765507Y-99483676D01*
X133765507Y-99483676D02*
X133670269Y-99578914D01*
X133670269Y-99578914D02*
X133575031Y-99626533D01*
X132575031Y-95530819D02*
X133241697Y-96530819D01*
X133241697Y-95530819D02*
X132575031Y-96530819D01*
X133575031Y-95626057D02*
X133622650Y-95578438D01*
X133622650Y-95578438D02*
X133717888Y-95530819D01*
X133717888Y-95530819D02*
X133955983Y-95530819D01*
X133955983Y-95530819D02*
X134051221Y-95578438D01*
X134051221Y-95578438D02*
X134098840Y-95626057D01*
X134098840Y-95626057D02*
X134146459Y-95721295D01*
X134146459Y-95721295D02*
X134146459Y-95816533D01*
X134146459Y-95816533D02*
X134098840Y-95959390D01*
X134098840Y-95959390D02*
X133527412Y-96530819D01*
X133527412Y-96530819D02*
X134146459Y-96530819D01*
D11*
X123942220Y-89541218D02*
X124542220Y-89541218D01*
D12*
X132282800Y-85051218D02*
X132001640Y-85051218D01*
X132282800Y-84031218D02*
X132001640Y-84031218D01*
D13*
X129742220Y-113041218D02*
X127142220Y-113041218D01*
X129742220Y-110241218D02*
X127142220Y-110241218D01*
X131330220Y-110893218D02*
G75*
G03*
X131330220Y-110893218I-37000J0D01*
G01*
D12*
X129504962Y-113618718D02*
X129979478Y-113618718D01*
X129504962Y-114663718D02*
X129979478Y-114663718D01*
X50832220Y-33300638D02*
X50832220Y-33581798D01*
X51852220Y-33300638D02*
X51852220Y-33581798D01*
D11*
X128308841Y-108354160D02*
X128908841Y-108354160D01*
D12*
X128552220Y-83200638D02*
X128552220Y-83481798D01*
X127532220Y-83200638D02*
X127532220Y-83481798D01*
D11*
X112442220Y-88441218D02*
X112442220Y-89741218D01*
X112402220Y-90091218D02*
X112402220Y-90191218D01*
X109482220Y-90091218D02*
X112402220Y-90091218D01*
X112402220Y-90191218D02*
X109482220Y-90191218D01*
X109482220Y-90191218D02*
X109482220Y-90091218D01*
D14*
X68482450Y-107319100D02*
X70232450Y-107319100D01*
X68482450Y-105720900D02*
X70232450Y-105720900D01*
X67205000Y-105720900D02*
X65455000Y-105720900D01*
X67205000Y-107319100D02*
X65455000Y-107319100D01*
D12*
X114032220Y-101881798D02*
X114032220Y-101600638D01*
X115052220Y-101881798D02*
X115052220Y-101600638D01*
D15*
X124142220Y-84691218D02*
G75*
G03*
X124142220Y-84691218I-125000J0D01*
G01*
D12*
X165990000Y-174940580D02*
X165990000Y-174659420D01*
X167010000Y-174940580D02*
X167010000Y-174659420D01*
D11*
X127109672Y-89041218D02*
X126059672Y-89041218D01*
D14*
X52164200Y-108195000D02*
X52164200Y-106445000D01*
X50566000Y-108195000D02*
X50566000Y-106445000D01*
D11*
X127617220Y-114541218D02*
X125942220Y-114541218D01*
X127142220Y-113741218D02*
X125942220Y-113741218D01*
D15*
X56017220Y-34866218D02*
G75*
G03*
X56017220Y-34866218I-125000J0D01*
G01*
D12*
X165432220Y-33581798D02*
X165432220Y-33300638D01*
X166452220Y-33581798D02*
X166452220Y-33300638D01*
X117719720Y-85978476D02*
X117719720Y-85503960D01*
X118764720Y-85978476D02*
X118764720Y-85503960D01*
D11*
X104302220Y-95191218D02*
X104302220Y-97691218D01*
X104302220Y-97691218D02*
X106842220Y-97691218D01*
X109382220Y-95191218D02*
X106842220Y-95191218D01*
X109382220Y-97691218D02*
X109382220Y-95191218D01*
D12*
X126032220Y-108481798D02*
X126032220Y-108200638D01*
X127052220Y-108481798D02*
X127052220Y-108200638D01*
D14*
X72164200Y-108195000D02*
X72164200Y-106445000D01*
X70566000Y-108195000D02*
X70566000Y-106445000D01*
D16*
X107742220Y-102216218D02*
X107742220Y-102216218D01*
X107742220Y-102266218D02*
X107742220Y-102266218D01*
D11*
X109742220Y-104241218D02*
X111892220Y-106391218D01*
X105742220Y-104241218D02*
X103592220Y-106391218D01*
X111892220Y-106391218D02*
X111892220Y-112541218D01*
X103592220Y-106391218D02*
X103592220Y-112541218D01*
X111892220Y-112541218D02*
X109742220Y-112541218D01*
X103592220Y-112541218D02*
X105742220Y-112541218D01*
D16*
X107742220Y-102266218D02*
G75*
G03*
X107742220Y-102216218I0J25000D01*
G01*
X107742220Y-102216218D02*
G75*
G03*
X107742220Y-102266218I0J-25000D01*
G01*
D11*
X113642220Y-107841218D02*
X113642220Y-107841218D01*
X113642220Y-107841218D02*
X113642220Y-107841218D01*
X113642220Y-108041218D02*
X113642220Y-108041218D01*
D17*
X115242220Y-107316218D02*
X115442220Y-107316218D01*
X115242220Y-108566218D02*
X115442220Y-108566218D01*
D11*
X113642220Y-107841218D02*
G75*
G03*
X113642220Y-107841218I0J0D01*
G01*
X113642220Y-108041218D02*
G75*
G03*
X113642220Y-107841218I0J100000D01*
G01*
X113642220Y-107841218D02*
G75*
G03*
X113642220Y-108041218I0J-100000D01*
G01*
D12*
X52475000Y-108899100D02*
X54225000Y-108899100D01*
X52475000Y-107300900D02*
X54225000Y-107300900D01*
D14*
X47205000Y-105720900D02*
X45455000Y-105720900D01*
X47205000Y-107319100D02*
X45455000Y-107319100D01*
X48482450Y-107319100D02*
X50232450Y-107319100D01*
X48482450Y-105720900D02*
X50232450Y-105720900D01*
D12*
X122004962Y-86018718D02*
X122479478Y-86018718D01*
X122004962Y-87063718D02*
X122479478Y-87063718D01*
D14*
X67330900Y-106445000D02*
X67330900Y-108195000D01*
X68929100Y-106445000D02*
X68929100Y-108195000D01*
D18*
X112067420Y-83288718D02*
X112067420Y-85193718D01*
X113068180Y-83288718D02*
X112067420Y-83288718D01*
X113266259Y-85193718D02*
X114018181Y-85193718D01*
X115217020Y-83288718D02*
X114216260Y-83288718D01*
X115217020Y-85193718D02*
X115217020Y-83288718D01*
D12*
X117852220Y-96200638D02*
X117852220Y-96481798D01*
X116832220Y-96200638D02*
X116832220Y-96481798D01*
X126301640Y-91431218D02*
X126582800Y-91431218D01*
X126301640Y-92451218D02*
X126582800Y-92451218D01*
X115364720Y-97303960D02*
X115364720Y-97778476D01*
X114319720Y-97303960D02*
X114319720Y-97778476D01*
D11*
X117332220Y-113091218D02*
X117332220Y-107991218D01*
X119462220Y-107991218D02*
X120292220Y-107991218D01*
X119462220Y-113091218D02*
X120292220Y-113091218D01*
X122002220Y-107991218D02*
X122832220Y-107991218D01*
X122002220Y-113091218D02*
X122832220Y-113091218D01*
X124952220Y-107991218D02*
X124952220Y-113091218D01*
D19*
X117533230Y-114552218D02*
G75*
G03*
X117533230Y-114552218I-127010J0D01*
G01*
D11*
X113742220Y-91941218D02*
X113742220Y-90641218D01*
X113782220Y-90291218D02*
X113782220Y-90191218D01*
X116702220Y-90291218D02*
X113782220Y-90291218D01*
X113782220Y-90191218D02*
X116702220Y-90191218D01*
X116702220Y-90191218D02*
X116702220Y-90291218D01*
D14*
X88482450Y-107319100D02*
X90232450Y-107319100D01*
X88482450Y-105720900D02*
X90232450Y-105720900D01*
D11*
X129542220Y-88941218D02*
X129542220Y-88941218D01*
X129542220Y-89041218D02*
X129542220Y-89041218D01*
X129542220Y-89041218D02*
X129542220Y-89041218D01*
X129542220Y-89041218D02*
G75*
G03*
X129542220Y-88941218I0J50000D01*
G01*
X129542220Y-89041218D02*
G75*
G03*
X129542220Y-88941218I0J50000D01*
G01*
X129542220Y-88941218D02*
G75*
G03*
X129542220Y-89041218I0J-50000D01*
G01*
D12*
X130852220Y-108200638D02*
X130852220Y-108481798D01*
X129832220Y-108200638D02*
X129832220Y-108481798D01*
D14*
X87330900Y-106445000D02*
X87330900Y-108195000D01*
X88929100Y-106445000D02*
X88929100Y-108195000D01*
D12*
X121332220Y-91381798D02*
X121332220Y-91100638D01*
X122352220Y-91381798D02*
X122352220Y-91100638D01*
X118932220Y-91381798D02*
X118932220Y-91100638D01*
X119952220Y-91381798D02*
X119952220Y-91100638D01*
X115582800Y-105851218D02*
X115301640Y-105851218D01*
X115582800Y-104831218D02*
X115301640Y-104831218D01*
D11*
X108842220Y-86229218D02*
X108842220Y-86853218D01*
D12*
X115932220Y-101881798D02*
X115932220Y-101600638D01*
X116952220Y-101881798D02*
X116952220Y-101600638D01*
X112779478Y-95263718D02*
X112304962Y-95263718D01*
X112779478Y-94218718D02*
X112304962Y-94218718D01*
D15*
X119929580Y-102001050D02*
G75*
G03*
X119929580Y-102001050I-125000J0D01*
G01*
D12*
X110219720Y-97978476D02*
X110219720Y-97503960D01*
X111264720Y-97978476D02*
X111264720Y-97503960D01*
D14*
X87205000Y-105720900D02*
X85455000Y-105720900D01*
X87205000Y-107319100D02*
X85455000Y-107319100D01*
D15*
X161175000Y-173475000D02*
G75*
G03*
X161175000Y-173475000I-125000J0D01*
G01*
D11*
X107337220Y-84741218D02*
X107337220Y-83741218D01*
X107382220Y-83391218D02*
X107382220Y-82691218D01*
X110302220Y-83391218D02*
X107382220Y-83391218D01*
X107382220Y-82691218D02*
X110302220Y-82691218D01*
X110302220Y-82691218D02*
X110302220Y-83391218D01*
D12*
X114704962Y-112018718D02*
X115179478Y-112018718D01*
X114704962Y-113063718D02*
X115179478Y-113063718D01*
X115182800Y-110751218D02*
X114901640Y-110751218D01*
X115182800Y-109731218D02*
X114901640Y-109731218D01*
X92375000Y-108899100D02*
X94125000Y-108899100D01*
X92375000Y-107300900D02*
X94125000Y-107300900D01*
D14*
X47330900Y-106445000D02*
X47330900Y-108195000D01*
X48929100Y-106445000D02*
X48929100Y-108195000D01*
X92164200Y-108195000D02*
X92164200Y-106445000D01*
X90566000Y-108195000D02*
X90566000Y-106445000D01*
D12*
X127601640Y-105231218D02*
X127882800Y-105231218D01*
X127601640Y-106251218D02*
X127882800Y-106251218D01*
D15*
X161317220Y-32116218D02*
G75*
G03*
X161317220Y-32116218I-125000J0D01*
G01*
D12*
X72475000Y-108899100D02*
X74225000Y-108899100D01*
X72475000Y-107300900D02*
X74225000Y-107300900D01*
D18*
X105889720Y-92016018D02*
X107794720Y-92016018D01*
X105889720Y-91015258D02*
X105889720Y-92016018D01*
X107794720Y-90817179D02*
X107794720Y-90065257D01*
X105889720Y-88866418D02*
X105889720Y-89867178D01*
X107794720Y-88866418D02*
X105889720Y-88866418D01*
%LPC*%
D20*
X124242220Y-90203218D03*
X124242220Y-88879218D03*
D21*
X132917220Y-84541218D03*
X131367220Y-84541218D03*
D22*
X130492220Y-110841218D03*
X126392220Y-110841218D03*
X126392220Y-112441218D03*
X130492220Y-112441218D03*
D23*
X128917220Y-114141218D03*
X130567220Y-114141218D03*
D24*
X51342220Y-34216218D03*
X51342220Y-32666218D03*
D25*
X128608841Y-109104160D03*
X128608841Y-107604160D03*
D24*
X128042220Y-82566218D03*
X128042220Y-84116218D03*
D26*
X111892220Y-89091218D03*
X109992220Y-89091218D03*
X110942220Y-91191218D03*
D27*
X70132050Y-106520000D03*
X68582850Y-106520000D03*
D28*
X65555400Y-106520000D03*
X67104600Y-106520000D03*
D29*
X114542220Y-102516218D03*
X114542220Y-100966218D03*
D30*
X124692220Y-84391218D03*
X125342220Y-84391218D03*
X125992220Y-84391218D03*
X125992220Y-82291218D03*
X125342220Y-82291218D03*
X124692220Y-82291218D03*
D31*
X125342220Y-83341218D03*
D29*
X166500000Y-175575000D03*
X166500000Y-174025000D03*
D32*
X126584672Y-88141218D03*
X126584672Y-89941218D03*
D33*
X51365100Y-106545400D03*
X51365100Y-108094600D03*
D34*
X98500000Y-111995921D03*
D35*
X127267220Y-114141218D03*
X125817220Y-114141218D03*
D36*
X54542220Y-33541218D03*
D37*
X53492220Y-34191218D03*
X53492220Y-33541218D03*
X53492220Y-32891218D03*
X55592220Y-32891218D03*
X55592220Y-33541218D03*
X55592220Y-34191218D03*
D29*
X165942220Y-34216218D03*
X165942220Y-32666218D03*
D38*
X118242220Y-86566218D03*
X118242220Y-84916218D03*
D39*
X105572220Y-94801218D03*
X108112220Y-98081218D03*
D29*
X126542220Y-109116218D03*
X126542220Y-107566218D03*
D33*
X71365100Y-106545400D03*
X71365100Y-108094600D03*
D40*
X107742220Y-104841218D03*
X107742220Y-111941218D03*
D41*
X114592220Y-107941218D03*
X116092220Y-107941218D03*
D42*
X54135100Y-108100000D03*
D43*
X52581200Y-108100000D03*
D28*
X45555400Y-106520000D03*
X47104600Y-106520000D03*
D44*
X133417155Y-98738000D03*
D27*
X50132050Y-106520000D03*
X48582850Y-106520000D03*
D23*
X121417220Y-86541218D03*
X123067220Y-86541218D03*
D45*
X68130000Y-108094600D03*
X68130000Y-106545400D03*
D46*
X112692219Y-85435018D03*
X114592221Y-85435018D03*
X113642220Y-83047418D03*
D24*
X117342220Y-95566218D03*
X117342220Y-97116218D03*
D47*
X125667220Y-91941218D03*
X127217220Y-91941218D03*
D48*
X114842220Y-96716218D03*
X114842220Y-98366218D03*
D49*
X118602220Y-113441218D03*
X118602220Y-107641218D03*
X121142220Y-113441218D03*
X121142220Y-107641218D03*
X123682220Y-113441218D03*
X123682220Y-107641218D03*
D34*
X98500000Y-104000000D03*
D26*
X114292220Y-91291218D03*
X116192220Y-91291218D03*
X115242220Y-89191218D03*
D27*
X90132050Y-106520000D03*
X88582850Y-106520000D03*
D50*
X129467220Y-87966218D03*
X130817220Y-87966218D03*
X130817220Y-86916218D03*
X129467220Y-86916218D03*
D24*
X130342220Y-107566218D03*
X130342220Y-109116218D03*
D45*
X88130000Y-108094600D03*
X88130000Y-106545400D03*
D29*
X121842220Y-92016218D03*
X121842220Y-90466218D03*
X119442220Y-92016218D03*
X119442220Y-90466218D03*
D21*
X116217220Y-105341218D03*
X114667220Y-105341218D03*
D22*
X108042220Y-86541218D03*
X109642220Y-86541218D03*
D34*
X98500000Y-107995921D03*
D29*
X116442220Y-102516218D03*
X116442220Y-100966218D03*
D51*
X113367220Y-94741218D03*
X111717220Y-94741218D03*
D52*
X120554580Y-101576050D03*
X121054580Y-101576050D03*
X121554580Y-101576050D03*
X122054580Y-101576050D03*
X122554580Y-101576050D03*
X123054580Y-101576050D03*
X123554580Y-101576050D03*
X124054580Y-101576050D03*
X124554580Y-101576050D03*
X125054580Y-101576050D03*
X125554580Y-101576050D03*
X126054580Y-101576050D03*
D53*
X126754580Y-100876050D03*
X126754580Y-100376050D03*
X126754580Y-99876050D03*
X126754580Y-99376050D03*
X126754580Y-98876050D03*
X126754580Y-98376050D03*
X126754580Y-97876050D03*
X126754580Y-97376050D03*
X126754580Y-96876050D03*
X126754580Y-96376050D03*
X126754580Y-95876050D03*
X126754580Y-95376050D03*
D52*
X126054580Y-94676050D03*
X125554580Y-94676050D03*
X125054580Y-94676050D03*
X124554580Y-94676050D03*
X124054580Y-94676050D03*
X123554580Y-94676050D03*
X123054580Y-94676050D03*
X122554580Y-94676050D03*
X122054580Y-94676050D03*
X121554580Y-94676050D03*
X121054580Y-94676050D03*
X120554580Y-94676050D03*
D53*
X119854580Y-95376050D03*
X119854580Y-95876050D03*
X119854580Y-96376050D03*
X119854580Y-96876050D03*
X119854580Y-97376050D03*
X119854580Y-97876050D03*
X119854580Y-98376050D03*
X119854580Y-98876050D03*
X119854580Y-99376050D03*
X119854580Y-99876050D03*
X119854580Y-100376050D03*
X119854580Y-100876050D03*
D54*
X123304580Y-98126050D03*
D38*
X110742220Y-98566218D03*
X110742220Y-96916218D03*
D55*
X133384555Y-97436700D03*
D28*
X85555400Y-106520000D03*
X87104600Y-106520000D03*
D37*
X161350000Y-174150000D03*
X161350000Y-174800000D03*
X161350000Y-175450000D03*
X163450000Y-175450000D03*
X163450000Y-174800000D03*
X163450000Y-174150000D03*
D36*
X162400000Y-174800000D03*
D56*
X107887220Y-84241218D03*
X109797220Y-84241218D03*
X108842220Y-81841218D03*
D23*
X114117220Y-112541218D03*
X115767220Y-112541218D03*
D21*
X115817220Y-110241218D03*
X114267220Y-110241218D03*
D42*
X94035100Y-108100000D03*
D43*
X92481200Y-108100000D03*
D45*
X48130000Y-108094600D03*
X48130000Y-106545400D03*
D33*
X91365100Y-106545400D03*
X91365100Y-108094600D03*
D47*
X126967220Y-105741218D03*
X128517220Y-105741218D03*
D37*
X161492220Y-32791218D03*
X161492220Y-33441218D03*
X161492220Y-34091218D03*
X163592220Y-34091218D03*
X163592220Y-33441218D03*
X163592220Y-32791218D03*
D36*
X162542220Y-33441218D03*
D42*
X74135100Y-108100000D03*
D43*
X72581200Y-108100000D03*
D57*
X108036020Y-91391219D03*
X108036020Y-89491217D03*
X105648420Y-90441218D03*
G36*
X46943039Y-49019685D02*
G01*
X46988794Y-49072489D01*
X47000000Y-49124000D01*
X47000000Y-105000000D01*
X61000000Y-105000000D01*
X61000000Y-49124000D01*
X61019685Y-49056961D01*
X61072489Y-49011206D01*
X61124000Y-49000000D01*
X66876000Y-49000000D01*
X66943039Y-49019685D01*
X66988794Y-49072489D01*
X67000000Y-49124000D01*
X67000000Y-105000000D01*
X81000000Y-105000000D01*
X81000000Y-49124000D01*
X81019685Y-49056961D01*
X81072489Y-49011206D01*
X81124000Y-49000000D01*
X86876000Y-49000000D01*
X86943039Y-49019685D01*
X86988794Y-49072489D01*
X87000000Y-49124000D01*
X87000000Y-105000000D01*
X94876000Y-105000000D01*
X94943039Y-105019685D01*
X94988794Y-105072489D01*
X95000000Y-105124000D01*
X95000000Y-110876000D01*
X94980315Y-110943039D01*
X94927511Y-110988794D01*
X94876000Y-111000000D01*
X87000000Y-111000000D01*
X87000000Y-165576000D01*
X86980315Y-165643039D01*
X86927511Y-165688794D01*
X86876000Y-165700000D01*
X81124000Y-165700000D01*
X81056961Y-165680315D01*
X81011206Y-165627511D01*
X81000000Y-165576000D01*
X81000000Y-111000000D01*
X67000000Y-111000000D01*
X67000000Y-165576000D01*
X66980315Y-165643039D01*
X66927511Y-165688794D01*
X66876000Y-165700000D01*
X61124000Y-165700000D01*
X61056961Y-165680315D01*
X61011206Y-165627511D01*
X61000000Y-165576000D01*
X61000000Y-111000000D01*
X47000000Y-111000000D01*
X47000000Y-165576000D01*
X46980315Y-165643039D01*
X46927511Y-165688794D01*
X46876000Y-165700000D01*
X41124000Y-165700000D01*
X41056961Y-165680315D01*
X41011206Y-165627511D01*
X41000000Y-165576000D01*
X41000000Y-49124000D01*
X41019685Y-49056961D01*
X41072489Y-49011206D01*
X41124000Y-49000000D01*
X46876000Y-49000000D01*
X46943039Y-49019685D01*
G37*
%LPD*%
M02*
