G04 #@! TF.GenerationSoftware,KiCad,Pcbnew,7.0.6*
G04 #@! TF.CreationDate,2023-08-25T14:35:58+01:00*
G04 #@! TF.ProjectId,gdp_flexible,6764705f-666c-4657-9869-626c652e6b69,1.0*
G04 #@! TF.SameCoordinates,Original*
G04 #@! TF.FileFunction,AssemblyDrawing,Top*
%FSLAX46Y46*%
G04 Gerber Fmt 4.6, Leading zero omitted, Abs format (unit mm)*
G04 Created by KiCad (PCBNEW 7.0.6) date 2023-08-25 14:35:58*
%MOMM*%
%LPD*%
G01*
G04 APERTURE LIST*
%ADD10C,0.100000*%
%ADD11C,0.254000*%
%ADD12C,0.120000*%
%ADD13C,0.200000*%
%ADD14C,0.025400*%
G04 APERTURE END LIST*
D10*
X123842220Y-90341218D02*
X123842220Y-88741218D01*
X124642220Y-90341218D02*
X123842220Y-90341218D01*
X123842220Y-88741218D02*
X124642220Y-88741218D01*
X124642220Y-88741218D02*
X124642220Y-90341218D01*
X132942220Y-84941218D02*
X131342220Y-84941218D01*
X132942220Y-84141218D02*
X132942220Y-84941218D01*
X131342220Y-84941218D02*
X131342220Y-84141218D01*
X131342220Y-84141218D02*
X132942220Y-84141218D01*
D11*
X130542220Y-113041218D02*
X126342220Y-113041218D01*
X130542220Y-110241218D02*
X130542220Y-113041218D01*
X126342220Y-113041218D02*
X126342220Y-110241218D01*
X126342220Y-110241218D02*
X130542220Y-110241218D01*
D10*
X128942220Y-113728718D02*
X130542220Y-113728718D01*
X128942220Y-114553718D02*
X128942220Y-113728718D01*
X130542220Y-113728718D02*
X130542220Y-114553718D01*
X130542220Y-114553718D02*
X128942220Y-114553718D01*
X50942220Y-34241218D02*
X50942220Y-32641218D01*
X51742220Y-34241218D02*
X50942220Y-34241218D01*
X50942220Y-32641218D02*
X51742220Y-32641218D01*
X51742220Y-32641218D02*
X51742220Y-34241218D01*
X128208841Y-109154160D02*
X128208841Y-107554160D01*
X129008841Y-109154160D02*
X128208841Y-109154160D01*
X128208841Y-107554160D02*
X129008841Y-107554160D01*
X129008841Y-107554160D02*
X129008841Y-109154160D01*
X128442220Y-82541218D02*
X128442220Y-84141218D01*
X127642220Y-82541218D02*
X128442220Y-82541218D01*
X128442220Y-84141218D02*
X127642220Y-84141218D01*
X127642220Y-84141218D02*
X127642220Y-82541218D01*
X112402220Y-89491218D02*
X112402220Y-90791218D01*
X111452220Y-89491218D02*
X112402220Y-90441218D01*
X109482220Y-89491218D02*
X112402220Y-89491218D01*
X112402220Y-90791218D02*
X109482220Y-90791218D01*
X109482220Y-90791218D02*
X109482220Y-89491218D01*
D12*
X70232450Y-106995000D02*
X68482450Y-106995000D01*
X70232450Y-106045000D02*
X70232450Y-106995000D01*
X68482450Y-106995000D02*
X68482450Y-106045000D01*
X68482450Y-106045000D02*
X70232450Y-106045000D01*
X65455000Y-106045000D02*
X67205000Y-106045000D01*
X65455000Y-106995000D02*
X65455000Y-106045000D01*
X67205000Y-106045000D02*
X67205000Y-106995000D01*
X67205000Y-106995000D02*
X65455000Y-106995000D01*
D10*
X114142220Y-102541218D02*
X114142220Y-100941218D01*
X114942220Y-102541218D02*
X114142220Y-102541218D01*
X114142220Y-100941218D02*
X114942220Y-100941218D01*
X114942220Y-100941218D02*
X114942220Y-102541218D01*
X124342220Y-84341218D02*
X124342220Y-82341218D01*
X124842220Y-84341218D02*
X124342220Y-83841218D01*
X126342220Y-84341218D02*
X124342220Y-84341218D01*
X124342220Y-82341218D02*
X126342220Y-82341218D01*
X126342220Y-82341218D02*
X126342220Y-84341218D01*
X166100000Y-175600000D02*
X166100000Y-174000000D01*
X166900000Y-175600000D02*
X166100000Y-175600000D01*
X166100000Y-174000000D02*
X166900000Y-174000000D01*
X166900000Y-174000000D02*
X166900000Y-175600000D01*
X127209672Y-87991218D02*
X127209672Y-90091218D01*
X125959672Y-87991218D02*
X127209672Y-87991218D01*
X127209672Y-90091218D02*
X125959672Y-90091218D01*
X125959672Y-90091218D02*
X125959672Y-87991218D01*
D12*
X51840100Y-106445000D02*
X51840100Y-108195000D01*
X50890100Y-106445000D02*
X51840100Y-106445000D01*
X51840100Y-108195000D02*
X50890100Y-108195000D01*
X50890100Y-108195000D02*
X50890100Y-106445000D01*
D10*
X96035946Y-113015000D02*
X96035946Y-110985000D01*
X101035946Y-113015000D02*
X96035946Y-113015000D01*
X101035946Y-111007500D02*
X101035946Y-113015000D01*
X96035946Y-110985000D02*
X101035946Y-110985000D01*
X127142220Y-114541218D02*
X125942220Y-114541218D01*
X127142220Y-114191218D02*
X126792220Y-114541218D01*
X127142220Y-113741218D02*
X127142220Y-114541218D01*
X125942220Y-114541218D02*
X125942220Y-113741218D01*
X125942220Y-113741218D02*
X127142220Y-113741218D01*
X53542220Y-32541218D02*
X55542220Y-32541218D01*
X53542220Y-34541218D02*
X53542220Y-32541218D01*
X55542220Y-32541218D02*
X55542220Y-34541218D01*
X55542220Y-34041218D02*
X55042220Y-34541218D01*
X55542220Y-34541218D02*
X53542220Y-34541218D01*
X165542220Y-34241218D02*
X165542220Y-32641218D01*
X166342220Y-34241218D02*
X165542220Y-34241218D01*
X165542220Y-32641218D02*
X166342220Y-32641218D01*
X166342220Y-32641218D02*
X166342220Y-34241218D01*
X117829720Y-86541218D02*
X117829720Y-84941218D01*
X118654720Y-86541218D02*
X117829720Y-86541218D01*
X117829720Y-84941218D02*
X118654720Y-84941218D01*
X118654720Y-84941218D02*
X118654720Y-86541218D01*
D13*
X104302220Y-95191218D02*
X109382220Y-95191218D01*
X104302220Y-97691218D02*
X104302220Y-95191218D01*
X109382220Y-95191218D02*
X109382220Y-97691218D01*
X109382220Y-97691218D02*
X104302220Y-97691218D01*
D10*
X126142220Y-109141218D02*
X126142220Y-107541218D01*
X126942220Y-109141218D02*
X126142220Y-109141218D01*
X126142220Y-107541218D02*
X126942220Y-107541218D01*
X126942220Y-107541218D02*
X126942220Y-109141218D01*
D12*
X71840100Y-106445000D02*
X71840100Y-108195000D01*
X70890100Y-106445000D02*
X71840100Y-106445000D01*
X71840100Y-108195000D02*
X70890100Y-108195000D01*
X70890100Y-108195000D02*
X70890100Y-106445000D01*
D10*
X109742220Y-104241218D02*
X111892220Y-106391218D01*
X109742220Y-104241218D02*
X111892220Y-106391218D01*
X105742220Y-104241218D02*
X109742220Y-104241218D01*
X111892220Y-106391218D02*
X111892220Y-112541218D01*
X103592220Y-106391218D02*
X105742220Y-104241218D01*
X111892220Y-112541218D02*
X103592220Y-112541218D01*
X103592220Y-112541218D02*
X103592220Y-106391218D01*
D13*
X114292220Y-107316218D02*
X116392220Y-107316218D01*
X114292220Y-108566218D02*
X114292220Y-107316218D01*
X116392220Y-107316218D02*
X116392220Y-108566218D01*
X116392220Y-108566218D02*
X114292220Y-108566218D01*
D12*
X54225000Y-108575000D02*
X52475000Y-108575000D01*
X54225000Y-107625000D02*
X54225000Y-108575000D01*
X52475000Y-108575000D02*
X52475000Y-107625000D01*
X52475000Y-107625000D02*
X54225000Y-107625000D01*
X45455000Y-106045000D02*
X47205000Y-106045000D01*
X45455000Y-106995000D02*
X45455000Y-106045000D01*
X47205000Y-106045000D02*
X47205000Y-106995000D01*
X47205000Y-106995000D02*
X45455000Y-106995000D01*
X50232450Y-106995000D02*
X48482450Y-106995000D01*
X50232450Y-106045000D02*
X50232450Y-106995000D01*
X48482450Y-106995000D02*
X48482450Y-106045000D01*
X48482450Y-106045000D02*
X50232450Y-106045000D01*
D10*
X121442220Y-86128718D02*
X123042220Y-86128718D01*
X121442220Y-86953718D02*
X121442220Y-86128718D01*
X123042220Y-86128718D02*
X123042220Y-86953718D01*
X123042220Y-86953718D02*
X121442220Y-86953718D01*
D12*
X67655000Y-108195000D02*
X67655000Y-106445000D01*
X68605000Y-108195000D02*
X67655000Y-108195000D01*
X67655000Y-106445000D02*
X68605000Y-106445000D01*
X68605000Y-106445000D02*
X68605000Y-108195000D01*
D14*
X112194420Y-83415718D02*
X112194420Y-85066718D01*
X112194420Y-85066718D02*
X115090020Y-85066718D01*
X112476320Y-85066718D02*
X112476320Y-85638218D01*
X112476320Y-85638218D02*
X112908120Y-85638218D01*
X112908120Y-85066718D02*
X112476320Y-85066718D01*
X112908120Y-85638218D02*
X112908120Y-85066718D01*
X113426320Y-82844218D02*
X113426320Y-83415718D01*
X113426320Y-83415718D02*
X113858120Y-83415718D01*
X113858120Y-82844218D02*
X113426320Y-82844218D01*
X113858120Y-83415718D02*
X113858120Y-82844218D01*
X114376320Y-85066718D02*
X114376320Y-85638218D01*
X114376320Y-85638218D02*
X114808120Y-85638218D01*
X114808120Y-85066718D02*
X114376320Y-85066718D01*
X114808120Y-85638218D02*
X114808120Y-85066718D01*
X115090020Y-83415718D02*
X112194420Y-83415718D01*
X115090020Y-85066718D02*
X115090020Y-83415718D01*
X112692220Y-84812718D02*
G75*
G03*
X112692220Y-84812718I0J0D01*
G01*
D10*
X117742220Y-95541218D02*
X117742220Y-97141218D01*
X116942220Y-95541218D02*
X117742220Y-95541218D01*
X117742220Y-97141218D02*
X116942220Y-97141218D01*
X116942220Y-97141218D02*
X116942220Y-95541218D01*
X125642220Y-91541218D02*
X127242220Y-91541218D01*
X125642220Y-92341218D02*
X125642220Y-91541218D01*
X127242220Y-91541218D02*
X127242220Y-92341218D01*
X127242220Y-92341218D02*
X125642220Y-92341218D01*
X115254720Y-96741218D02*
X115254720Y-98341218D01*
X114429720Y-96741218D02*
X115254720Y-96741218D01*
X115254720Y-98341218D02*
X114429720Y-98341218D01*
X114429720Y-98341218D02*
X114429720Y-96741218D01*
D13*
X117332220Y-107991218D02*
X124952220Y-107991218D01*
X117332220Y-113091218D02*
X117332220Y-107991218D01*
X124952220Y-107991218D02*
X124952220Y-113091218D01*
X124952220Y-113091218D02*
X117332220Y-113091218D01*
D10*
X96035946Y-105019079D02*
X96035946Y-102989079D01*
X101035946Y-105019079D02*
X96035946Y-105019079D01*
X101035946Y-103011579D02*
X101035946Y-105019079D01*
X96035946Y-102989079D02*
X101035946Y-102989079D01*
X113782220Y-90891218D02*
X113782220Y-89591218D01*
X114732220Y-90891218D02*
X113782220Y-89941218D01*
X116702220Y-90891218D02*
X113782220Y-90891218D01*
X113782220Y-89591218D02*
X116702220Y-89591218D01*
X116702220Y-89591218D02*
X116702220Y-90891218D01*
D12*
X90232450Y-106995000D02*
X88482450Y-106995000D01*
X90232450Y-106045000D02*
X90232450Y-106995000D01*
X88482450Y-106995000D02*
X88482450Y-106045000D01*
X88482450Y-106045000D02*
X90232450Y-106045000D01*
D13*
X129142220Y-86641218D02*
X129142220Y-88241218D01*
X129142220Y-88241218D02*
X131142220Y-88241218D01*
X131142220Y-86641218D02*
X129142220Y-86641218D01*
X131142220Y-88241218D02*
X131142220Y-86641218D01*
D10*
X130742220Y-107541218D02*
X130742220Y-109141218D01*
X129942220Y-107541218D02*
X130742220Y-107541218D01*
X130742220Y-109141218D02*
X129942220Y-109141218D01*
X129942220Y-109141218D02*
X129942220Y-107541218D01*
D12*
X87655000Y-108195000D02*
X87655000Y-106445000D01*
X88605000Y-108195000D02*
X87655000Y-108195000D01*
X87655000Y-106445000D02*
X88605000Y-106445000D01*
X88605000Y-106445000D02*
X88605000Y-108195000D01*
D10*
X121442220Y-92041218D02*
X121442220Y-90441218D01*
X122242220Y-92041218D02*
X121442220Y-92041218D01*
X121442220Y-90441218D02*
X122242220Y-90441218D01*
X122242220Y-90441218D02*
X122242220Y-92041218D01*
X119042220Y-92041218D02*
X119042220Y-90441218D01*
X119842220Y-92041218D02*
X119042220Y-92041218D01*
X119042220Y-90441218D02*
X119842220Y-90441218D01*
X119842220Y-90441218D02*
X119842220Y-92041218D01*
X116242220Y-105741218D02*
X114642220Y-105741218D01*
X116242220Y-104941218D02*
X116242220Y-105741218D01*
X114642220Y-105741218D02*
X114642220Y-104941218D01*
X114642220Y-104941218D02*
X116242220Y-104941218D01*
X108042220Y-86129218D02*
X109642220Y-86129218D01*
X108042220Y-86953218D02*
X108042220Y-86129218D01*
X109642220Y-86129218D02*
X109642220Y-86953218D01*
X109642220Y-86953218D02*
X108042220Y-86953218D01*
X96035946Y-109015000D02*
X96035946Y-106985000D01*
X101035946Y-109015000D02*
X96035946Y-109015000D01*
X101035946Y-107007500D02*
X101035946Y-109015000D01*
X96035946Y-106985000D02*
X101035946Y-106985000D01*
X116042220Y-102541218D02*
X116042220Y-100941218D01*
X116842220Y-102541218D02*
X116042220Y-102541218D01*
X116042220Y-100941218D02*
X116842220Y-100941218D01*
X116842220Y-100941218D02*
X116842220Y-102541218D01*
X113342220Y-95153718D02*
X111742220Y-95153718D01*
X113342220Y-94328718D02*
X113342220Y-95153718D01*
X111742220Y-95153718D02*
X111742220Y-94328718D01*
X111742220Y-94328718D02*
X113342220Y-94328718D01*
X119804580Y-101626050D02*
X119804580Y-94626050D01*
X120304580Y-101626050D02*
X119804580Y-101126050D01*
X126804580Y-101626050D02*
X119804580Y-101626050D01*
X119804580Y-94626050D02*
X126804580Y-94626050D01*
X126804580Y-94626050D02*
X126804580Y-101626050D01*
X110329720Y-98541218D02*
X110329720Y-96941218D01*
X111154720Y-98541218D02*
X110329720Y-98541218D01*
X110329720Y-96941218D02*
X111154720Y-96941218D01*
X111154720Y-96941218D02*
X111154720Y-98541218D01*
D12*
X85455000Y-106045000D02*
X87205000Y-106045000D01*
X85455000Y-106995000D02*
X85455000Y-106045000D01*
X87205000Y-106045000D02*
X87205000Y-106995000D01*
X87205000Y-106995000D02*
X85455000Y-106995000D01*
D10*
X161400000Y-173800000D02*
X163400000Y-173800000D01*
X161400000Y-174300000D02*
X161900000Y-173800000D01*
X161400000Y-175800000D02*
X161400000Y-173800000D01*
X163400000Y-173800000D02*
X163400000Y-175800000D01*
X163400000Y-175800000D02*
X161400000Y-175800000D01*
X107382220Y-83691218D02*
X107382220Y-82391218D01*
X108337220Y-83691218D02*
X107382220Y-82736218D01*
X110302220Y-83691218D02*
X107382220Y-83691218D01*
X107382220Y-82391218D02*
X110302220Y-82391218D01*
X110302220Y-82391218D02*
X110302220Y-83691218D01*
X114142220Y-112128718D02*
X115742220Y-112128718D01*
X114142220Y-112953718D02*
X114142220Y-112128718D01*
X115742220Y-112128718D02*
X115742220Y-112953718D01*
X115742220Y-112953718D02*
X114142220Y-112953718D01*
X115842220Y-110641218D02*
X114242220Y-110641218D01*
X115842220Y-109841218D02*
X115842220Y-110641218D01*
X114242220Y-110641218D02*
X114242220Y-109841218D01*
X114242220Y-109841218D02*
X115842220Y-109841218D01*
D12*
X94125000Y-108575000D02*
X92375000Y-108575000D01*
X94125000Y-107625000D02*
X94125000Y-108575000D01*
X92375000Y-108575000D02*
X92375000Y-107625000D01*
X92375000Y-107625000D02*
X94125000Y-107625000D01*
X47655000Y-108195000D02*
X47655000Y-106445000D01*
X48605000Y-108195000D02*
X47655000Y-108195000D01*
X47655000Y-106445000D02*
X48605000Y-106445000D01*
X48605000Y-106445000D02*
X48605000Y-108195000D01*
X91840100Y-106445000D02*
X91840100Y-108195000D01*
X90890100Y-106445000D02*
X91840100Y-106445000D01*
X91840100Y-108195000D02*
X90890100Y-108195000D01*
X90890100Y-108195000D02*
X90890100Y-106445000D01*
D10*
X126942220Y-105341218D02*
X128542220Y-105341218D01*
X126942220Y-106141218D02*
X126942220Y-105341218D01*
X128542220Y-105341218D02*
X128542220Y-106141218D01*
X128542220Y-106141218D02*
X126942220Y-106141218D01*
X161542220Y-32441218D02*
X163542220Y-32441218D01*
X161542220Y-32941218D02*
X162042220Y-32441218D01*
X161542220Y-34441218D02*
X161542220Y-32441218D01*
X163542220Y-32441218D02*
X163542220Y-34441218D01*
X163542220Y-34441218D02*
X161542220Y-34441218D01*
D12*
X74225000Y-108575000D02*
X72475000Y-108575000D01*
X74225000Y-107625000D02*
X74225000Y-108575000D01*
X72475000Y-108575000D02*
X72475000Y-107625000D01*
X72475000Y-107625000D02*
X74225000Y-107625000D01*
D14*
X106016720Y-91889018D02*
X107667720Y-91889018D01*
X107667720Y-91889018D02*
X107667720Y-88993418D01*
X107667720Y-91607118D02*
X108239220Y-91607118D01*
X108239220Y-91607118D02*
X108239220Y-91175318D01*
X107667720Y-91175318D02*
X107667720Y-91607118D01*
X108239220Y-91175318D02*
X107667720Y-91175318D01*
X105445220Y-90657118D02*
X106016720Y-90657118D01*
X106016720Y-90657118D02*
X106016720Y-90225318D01*
X105445220Y-90225318D02*
X105445220Y-90657118D01*
X106016720Y-90225318D02*
X105445220Y-90225318D01*
X107667720Y-89707118D02*
X108239220Y-89707118D01*
X108239220Y-89707118D02*
X108239220Y-89275318D01*
X107667720Y-89275318D02*
X107667720Y-89707118D01*
X108239220Y-89275318D02*
X107667720Y-89275318D01*
X106016720Y-88993418D02*
X106016720Y-91889018D01*
X107667720Y-88993418D02*
X106016720Y-88993418D01*
X107413720Y-91391218D02*
G75*
G03*
X107413720Y-91391218I0J0D01*
G01*
M02*
