%TF.GenerationSoftware,KiCad,Pcbnew,7.0.6*%
%TF.CreationDate,2023-08-25T14:36:15+01:00*%
%TF.ProjectId,gdp_flexible,6764705f-666c-4657-9869-626c652e6b69,1.0*%
%TF.SameCoordinates,Original*%
%TF.FileFunction,Drillmap*%
%TF.FilePolarity,Positive*%
%FSLAX45Y45*%
G04 Gerber Fmt 4.5, Leading zero omitted, Abs format (unit mm)*
G04 Created by KiCad (PCBNEW 7.0.6) date 2023-08-25 14:36:15*
%MOMM*%
%LPD*%
G01*
G04 APERTURE LIST*
%ADD10C,0.100000*%
%ADD11C,0.200000*%
G04 APERTURE END LIST*
D10*
X9500000Y-10150000D02*
X9000000Y-10400000D01*
X8900000Y-10300000D02*
G75*
G03*
X9000000Y-10400000I100000J0D01*
G01*
X9000000Y-11200000D02*
X9500000Y-11450000D01*
X9000000Y-11200000D02*
G75*
G03*
X8900000Y-11300000I0J-100000D01*
G01*
X10100000Y-10150000D02*
X9500000Y-10150000D01*
X10100000Y-11450000D02*
X9500000Y-11450000D01*
X10100000Y-11600000D02*
G75*
G03*
X10400000Y-11900000I300000J0D01*
G01*
X11500000Y-12100000D02*
G75*
G03*
X11300000Y-11900000I-200000J0D01*
G01*
X10100000Y-11450000D02*
X10100000Y-11600000D01*
X11300000Y-11900000D02*
X10400000Y-11900000D01*
X13800000Y-9000000D02*
X14950000Y-9000000D01*
X17300000Y-2420000D02*
G75*
G03*
X17180000Y-2300000I-120000J0D01*
G01*
X12200000Y-17500000D02*
X12200000Y-12100000D01*
X15100000Y-10850000D02*
G75*
G03*
X14950000Y-10700000I-150000J0D01*
G01*
X6380000Y-4300000D02*
G75*
G03*
X6500000Y-4180000I0J120000D01*
G01*
X13600000Y-8800000D02*
G75*
G03*
X13800000Y-9000000I200000J0D01*
G01*
X15320000Y-16600000D02*
G75*
G03*
X15200000Y-16720000I0J-120000D01*
G01*
X13930000Y-10700000D02*
X13800000Y-10700000D01*
X15220000Y-7750000D02*
X17280000Y-7750000D01*
X8900000Y-10300000D02*
X8900000Y-4900000D01*
X15050000Y-17700000D02*
X12400000Y-17700000D01*
X17300000Y-2420000D02*
X17300000Y-4180000D01*
X12400000Y-11900000D02*
G75*
G03*
X12200000Y-12100000I0J-200000D01*
G01*
X13600000Y-8100000D02*
G75*
G03*
X13300000Y-7800000I-300000J0D01*
G01*
X15320000Y-4300000D02*
X17180000Y-4300000D01*
X15200000Y-3250000D02*
G75*
G03*
X15050000Y-3100000I-150000J0D01*
G01*
X8800000Y-4800000D02*
X4000000Y-4800000D01*
X4400000Y-2420000D02*
X4400000Y-4180000D01*
X4520000Y-4300000D02*
X6380000Y-4300000D01*
X10100000Y-10150000D02*
X10100000Y-8100000D01*
X14950000Y-9000000D02*
G75*
G03*
X15100000Y-8850000I0J150000D01*
G01*
X6650000Y-3100000D02*
X11300000Y-3100000D01*
X17400000Y-7870000D02*
G75*
G03*
X17280000Y-7750000I-120000J0D01*
G01*
X17180000Y-4300000D02*
G75*
G03*
X17300000Y-4180000I0J120000D01*
G01*
X8800000Y-16670000D02*
G75*
G03*
X8900000Y-16570000I0J100000D01*
G01*
X8900000Y-16570000D02*
X8900000Y-11300000D01*
X13300000Y-11900000D02*
X12400000Y-11900000D01*
X11300000Y-7800000D02*
G75*
G03*
X11500000Y-7600000I0J200000D01*
G01*
X12400000Y-7800000D02*
X13300000Y-7800000D01*
X13800000Y-10700000D02*
G75*
G03*
X13600000Y-10900000I0J-200000D01*
G01*
X6500000Y-3250000D02*
X6500000Y-4180000D01*
X11500000Y-3300000D02*
G75*
G03*
X11300000Y-3100000I-200000J0D01*
G01*
X15200000Y-4180000D02*
G75*
G03*
X15320000Y-4300000I120000J0D01*
G01*
X17180000Y-2300000D02*
X12250000Y-2300000D01*
X3900000Y-4900000D02*
X3900000Y-16570000D01*
X17180000Y-18600000D02*
G75*
G03*
X17300000Y-18480000I0J120000D01*
G01*
X15100000Y-11830000D02*
G75*
G03*
X15220000Y-11950000I120000J0D01*
G01*
X11500000Y-18400000D02*
G75*
G03*
X11700000Y-18600000I200000J0D01*
G01*
X4520000Y-2300000D02*
G75*
G03*
X4400000Y-2420000I0J-120000D01*
G01*
X11500000Y-12100000D02*
X11500000Y-18400000D01*
X14950000Y-10700000D02*
X13930000Y-10700000D01*
X4400000Y-4180000D02*
G75*
G03*
X4520000Y-4300000I120000J0D01*
G01*
X4000000Y-16670000D02*
X8800000Y-16670000D01*
X17280000Y-11950000D02*
X15220000Y-11950000D01*
X13600000Y-8100000D02*
X13600000Y-8800000D01*
X12250000Y-2300000D02*
X11450000Y-2300000D01*
X15200000Y-16720000D02*
X15200000Y-17550000D01*
X15100000Y-10850000D02*
X15100000Y-11830000D01*
X15050000Y-17700000D02*
G75*
G03*
X15200000Y-17550000I0J150000D01*
G01*
X15200000Y-3250000D02*
X15200000Y-4180000D01*
X10400000Y-7800000D02*
G75*
G03*
X10100000Y-8100000I0J-300000D01*
G01*
X13600000Y-11330000D02*
X13600000Y-11600000D01*
X12200000Y-7600000D02*
X12200000Y-3300000D01*
X4000000Y-4800000D02*
G75*
G03*
X3900000Y-4900000I0J-100000D01*
G01*
X12200000Y-17500000D02*
G75*
G03*
X12400000Y-17700000I200000J0D01*
G01*
X13300000Y-11900000D02*
G75*
G03*
X13600000Y-11600000I0J300000D01*
G01*
X12200000Y-7600000D02*
G75*
G03*
X12400000Y-7800000I200000J0D01*
G01*
X10400000Y-7800000D02*
X11300000Y-7800000D01*
X11700000Y-18600000D02*
X17180000Y-18600000D01*
X15220000Y-7750000D02*
G75*
G03*
X15100000Y-7870000I0J-120000D01*
G01*
X17280000Y-11950000D02*
G75*
G03*
X17400000Y-11830000I0J120000D01*
G01*
X6650000Y-3100000D02*
G75*
G03*
X6500000Y-3250000I0J-150000D01*
G01*
X15100000Y-8850000D02*
X15100000Y-7870000D01*
X17400000Y-7870000D02*
X17400000Y-11830000D01*
X8900000Y-4900000D02*
G75*
G03*
X8800000Y-4800000I-100000J0D01*
G01*
X17300000Y-16720000D02*
G75*
G03*
X17180000Y-16600000I-120000J0D01*
G01*
X12400000Y-3100000D02*
G75*
G03*
X12200000Y-3300000I0J-200000D01*
G01*
X15320000Y-16600000D02*
X17180000Y-16600000D01*
X17300000Y-16720000D02*
X17300000Y-18480000D01*
X11500000Y-7600000D02*
X11500000Y-3300000D01*
X12400000Y-3100000D02*
X15050000Y-3100000D01*
X13600000Y-10900000D02*
X13600000Y-11330000D01*
X3900000Y-16570000D02*
G75*
G03*
X4000000Y-16670000I100000J0D01*
G01*
X11450000Y-2300000D02*
X4520000Y-2300000D01*
D11*
X4155777Y-18916484D02*
X4155777Y-18716484D01*
X4155777Y-18716484D02*
X4203396Y-18716484D01*
X4203396Y-18716484D02*
X4231967Y-18726008D01*
X4231967Y-18726008D02*
X4251015Y-18745055D01*
X4251015Y-18745055D02*
X4260539Y-18764103D01*
X4260539Y-18764103D02*
X4270063Y-18802198D01*
X4270063Y-18802198D02*
X4270063Y-18830770D01*
X4270063Y-18830770D02*
X4260539Y-18868865D01*
X4260539Y-18868865D02*
X4251015Y-18887912D01*
X4251015Y-18887912D02*
X4231967Y-18906960D01*
X4231967Y-18906960D02*
X4203396Y-18916484D01*
X4203396Y-18916484D02*
X4155777Y-18916484D01*
X4355777Y-18916484D02*
X4355777Y-18783150D01*
X4355777Y-18821246D02*
X4365301Y-18802198D01*
X4365301Y-18802198D02*
X4374824Y-18792674D01*
X4374824Y-18792674D02*
X4393872Y-18783150D01*
X4393872Y-18783150D02*
X4412920Y-18783150D01*
X4479586Y-18916484D02*
X4479586Y-18783150D01*
X4479586Y-18716484D02*
X4470063Y-18726008D01*
X4470063Y-18726008D02*
X4479586Y-18735531D01*
X4479586Y-18735531D02*
X4489110Y-18726008D01*
X4489110Y-18726008D02*
X4479586Y-18716484D01*
X4479586Y-18716484D02*
X4479586Y-18735531D01*
X4603396Y-18916484D02*
X4584348Y-18906960D01*
X4584348Y-18906960D02*
X4574824Y-18887912D01*
X4574824Y-18887912D02*
X4574824Y-18716484D01*
X4708158Y-18916484D02*
X4689110Y-18906960D01*
X4689110Y-18906960D02*
X4679586Y-18887912D01*
X4679586Y-18887912D02*
X4679586Y-18716484D01*
X4936729Y-18916484D02*
X4936729Y-18716484D01*
X4936729Y-18716484D02*
X5003396Y-18859341D01*
X5003396Y-18859341D02*
X5070063Y-18716484D01*
X5070063Y-18716484D02*
X5070063Y-18916484D01*
X5251015Y-18916484D02*
X5251015Y-18811722D01*
X5251015Y-18811722D02*
X5241491Y-18792674D01*
X5241491Y-18792674D02*
X5222444Y-18783150D01*
X5222444Y-18783150D02*
X5184348Y-18783150D01*
X5184348Y-18783150D02*
X5165301Y-18792674D01*
X5251015Y-18906960D02*
X5231967Y-18916484D01*
X5231967Y-18916484D02*
X5184348Y-18916484D01*
X5184348Y-18916484D02*
X5165301Y-18906960D01*
X5165301Y-18906960D02*
X5155777Y-18887912D01*
X5155777Y-18887912D02*
X5155777Y-18868865D01*
X5155777Y-18868865D02*
X5165301Y-18849817D01*
X5165301Y-18849817D02*
X5184348Y-18840293D01*
X5184348Y-18840293D02*
X5231967Y-18840293D01*
X5231967Y-18840293D02*
X5251015Y-18830770D01*
X5346253Y-18783150D02*
X5346253Y-18983150D01*
X5346253Y-18792674D02*
X5365301Y-18783150D01*
X5365301Y-18783150D02*
X5403396Y-18783150D01*
X5403396Y-18783150D02*
X5422444Y-18792674D01*
X5422444Y-18792674D02*
X5431967Y-18802198D01*
X5431967Y-18802198D02*
X5441491Y-18821246D01*
X5441491Y-18821246D02*
X5441491Y-18878389D01*
X5441491Y-18878389D02*
X5431967Y-18897436D01*
X5431967Y-18897436D02*
X5422444Y-18906960D01*
X5422444Y-18906960D02*
X5403396Y-18916484D01*
X5403396Y-18916484D02*
X5365301Y-18916484D01*
X5365301Y-18916484D02*
X5346253Y-18906960D01*
X5527205Y-18897436D02*
X5536729Y-18906960D01*
X5536729Y-18906960D02*
X5527205Y-18916484D01*
X5527205Y-18916484D02*
X5517682Y-18906960D01*
X5517682Y-18906960D02*
X5527205Y-18897436D01*
X5527205Y-18897436D02*
X5527205Y-18916484D01*
X5527205Y-18792674D02*
X5536729Y-18802198D01*
X5536729Y-18802198D02*
X5527205Y-18811722D01*
X5527205Y-18811722D02*
X5517682Y-18802198D01*
X5517682Y-18802198D02*
X5527205Y-18792674D01*
X5527205Y-18792674D02*
X5527205Y-18811722D01*
M02*
