M48
; DRILL file {KiCad 7.0.6} date Fri Aug 25 15:25:49 2023
; FORMAT={-:-/ absolute / metric / decimal}
; #@! TF.CreationDate,2023-08-25T15:25:49+01:00
; #@! TF.GenerationSoftware,Kicad,Pcbnew,7.0.6
; #@! TF.FileFunction,Plated,1,2,PTH
FMAT,2
METRIC
; #@! TA.AperFunction,Plated,PTH,ViaDrill
T1C0.350
; #@! TA.AperFunction,Plated,PTH,ViaDrill
T2C0.400
%
G90
G05
T1
X55.25Y-106.5
X56.45Y-106.5
X57.85Y-108.7
X74.25Y-109.3
X75.55Y-109.3
X76.35Y-106.5
X76.85Y-109.3
X77.55Y-106.5
X93.95Y-109.269
T2
X48.159Y-24.641
X68.6Y-29.841
X68.7Y-26.341
X68.7Y-28.141
X97.6Y-109.6
X99.2Y-110.2
X99.4Y-105.9
X104.2Y-100.3
X104.842Y-82.041
X105.0Y-109.3
X105.0Y-111.0
X105.572Y-103.6
X106.9Y-87.9
X106.942Y-90.541
X110.142Y-94.741
X111.0Y-108.6
X111.142Y-86.441
X111.2Y-103.3
X111.6Y-29.641
X111.7Y-26.941
X111.935Y-99.849
X112.142Y-96.941
X112.742Y-101.241
X113.642Y-98.341
X114.242Y-87.241
X114.942Y-93.041
X115.5Y-78.4
X115.5Y-118.6
X116.342Y-98.341
X116.8Y-28.3
X116.9Y-25.841
X117.442Y-81.441
X117.542Y-93.841
X118.542Y-98.341
X118.542Y-100.841
X118.642Y-82.641
X119.242Y-93.841
X119.4Y-89.2
X119.842Y-109.841
X120.042Y-84.141
X121.142Y-109.841
X121.142Y-111.541
X121.257Y-104.284
X121.414Y-100.022
X121.485Y-98.194
X121.5Y-118.6
X121.567Y-96.273
X121.6Y-78.4
X121.816Y-105.112
X122.042Y-88.341
X122.242Y-84.641
X122.442Y-109.841
X122.442Y-111.541
X123.242Y-98.241
X123.242Y-100.093
X123.289Y-96.273
X123.682Y-109.841
X124.5Y-93.1
X125.058Y-98.253
X125.082Y-100.081
X125.14Y-96.249
X125.442Y-104.341
X126.642Y-104.341
X127.242Y-86.241
X127.742Y-104.341
X128.426Y-111.4
X128.5Y-90.2
X129.9Y-106.3
X130.442Y-90.141
X130.642Y-115.641
X131.742Y-110.041
X132.142Y-81.441
X132.461Y-114.644
X133.385Y-97.437
X133.5Y-87.5
X135.7Y-178.7
X138.8Y-178.7
X138.8Y-183.0
X144.2Y-28.3
X146.276Y-29.541
X147.3Y-180.0
X147.3Y-182.6
X148.5Y-28.296
X149.0Y-178.7
X149.0Y-181.4
X149.5Y-26.541
X150.3Y-180.0
T0
M30
